<?xml version="1.0" encoding="UTF-8"?>
<svg version="1.1" xmlns="http://www.w3.org/2000/svg" width="500" height="500">
<path d="M0 0 C14.85 0 29.7 0 45 0 C45.04593546 23.46983904 45.08243196 46.93963923 45.10362434 70.40951252 C45.11374519 81.31786571 45.12741418 92.22618815 45.15087891 103.13452148 C45.17142609 112.69146809 45.1838536 122.24839241 45.18817699 131.8053605 C45.19068631 136.82092999 45.19612375 141.83643599 45.21146011 146.85198402 C45.32561207 189.2712063 44.02254557 231.56435895 43 274 C-46.43 274 -135.86 274 -228 274 C-228 259.81 -228 245.62 -228 231 C-191.74508433 230.94543232 -155.49259237 230.99308746 -119.23828125 231.21875 C-118.43819948 231.22371176 -117.63811771 231.22867352 -116.81379104 231.23378563 C-103.31332902 231.31784944 -89.81292161 231.40958511 -76.3125 231.5 C-38.5378125 231.7475 -38.5378125 231.7475 0 232 C0 155.44 0 78.88 0 0 Z " fill="#8BFCF8" transform="translate(228,0)"/>
<path d="M0 0 C3.63 0 7.26 0 11 0 C11 0.33 11 0.66 11 1 C7.37 1 3.74 1 0 1 C0 0.67 0 0.34 0 0 Z " fill="#F53E00" transform="translate(229,298)"/>
<path d="M0 0 C3 1 3 1 3 1 Z " fill="#BD872B" transform="translate(453,273)"/>
<path d="M0 0 C2 1 2 1 2 1 Z " fill="#FF350A" transform="translate(399,232)"/>
</svg>
