<?xml version="1.0" encoding="UTF-8"?>
<svg version="1.1" xmlns="http://www.w3.org/2000/svg" width="500" height="500">
<path d="M0 0 C89.43 0 178.86 0 271 0 C272.14968081 49.43627465 272.14968081 49.43627465 272.11352539 69.08666992 C272.11324131 71.36884561 272.11340552 73.65102139 272.1139679 75.93319702 C272.11424729 81.95732656 272.10849423 87.98143494 272.10139394 94.00555968 C272.09501287 100.36481469 272.09454523 106.72407053 272.09336853 113.08332825 C272.09064348 123.70147039 272.08445805 134.31960586 272.07543945 144.93774414 C272.06618279 155.84790003 272.05914301 166.75805384 272.05493164 177.66821289 C272.05453756 178.68626119 272.05453756 178.68626119 272.05413551 179.72487613 C272.05282996 183.13155929 272.05156637 186.53824248 272.05032361 189.94492567 C272.04004868 217.96329016 272.02166514 245.98164187 272 274 C257.15 274 242.3 274 227 274 C226.97725718 249.8047918 226.95890822 225.60959251 226.94818783 201.41437626 C226.9430736 190.17525405 226.93612623 178.93613906 226.92456055 167.69702148 C226.91446222 157.87898851 226.90811135 148.06096075 226.90591151 138.24292272 C226.90462955 133.06439308 226.90170957 127.88587836 226.89426994 122.70735359 C226.85706987 95.78911805 227.20046673 68.90681121 228 42 C227.23200923 42.00092179 226.46401846 42.00184359 225.67275524 42.00279331 C206.6138513 42.02529192 187.55495015 42.04162025 168.49603558 42.05181217 C159.27770687 42.05687717 150.05938733 42.06374942 140.84106445 42.07543945 C93.88286269 42.13382313 46.95071796 41.87056644 0 41 C0 27.47 0 13.94 0 0 Z " fill="#FD7F28" transform="translate(0,226)"/>
<path d="M0 0 C0.33 0 0.66 0 1 0 C1.33 14.19 1.66 28.38 2 43 C1.34 43 0.68 43 0 43 C0 105.37 0 167.74 0 232 C-0.33 232 -0.66 232 -1 232 C-1.0235619 207.80479458 -1.04109178 183.60959092 -1.05181217 159.41437626 C-1.0569264 148.17525405 -1.06387377 136.93613906 -1.07543945 125.69702148 C-1.08553778 115.87898851 -1.09188865 106.06096075 -1.09408849 96.24292272 C-1.09537045 91.06439308 -1.09829043 85.88587836 -1.10573006 80.70735359 C-1.14293013 53.78911805 -0.79953327 26.90681121 0 0 Z " fill="#7F7F7F" transform="translate(228,268)"/>
<path d="M0 0 C0.33 0 0.66 0 1 0 C1.33 14.19 1.66 28.38 2 43 C1.01 43 0.02 43 -1 43 C-0.67 28.81 -0.34 14.62 0 0 Z " fill="#8E877F" transform="translate(228,268)"/>
<path d="M0 0 C4.62 0 9.24 0 14 0 C14 0.66 14 1.32 14 2 C11.51245214 3.24377393 9.77344699 3.13306235 7 3.125 C6.113125 3.12757813 5.22625 3.13015625 4.3125 3.1328125 C2 3 2 3 0 2 C0 1.34 0 0.68 0 0 Z " fill="#E2864D" transform="translate(231,226)"/>
<path d="M0 0 C3.63 0 7.26 0 11 0 C11 0.33 11 0.66 11 1 C7.37 1 3.74 1 0 1 C0 0.67 0 0.34 0 0 Z " fill="#F53E00" transform="translate(260,201)"/>
</svg>
