<?xml version="1.0" encoding="UTF-8"?>
<svg version="1.1" xmlns="http://www.w3.org/2000/svg" width="500" height="500">
<path d="M0 0 C14.85 0 29.7 0 45 0 C45.04141937 50.15400484 44.92432568 100.30750424 44.80645666 150.46134357 C44.77793124 162.61079105 44.75019816 174.76024031 44.72249681 186.9096897 C44.67310861 208.56194606 44.62312767 230.214201 44.57275391 251.86645508 C44.52393073 272.85278247 44.4753992 293.83911051 44.42724609 314.82543945 C44.4227656 316.778086 44.4227656 316.778086 44.41819459 318.77017995 C44.40320587 325.30318793 44.38822274 331.83619592 44.37324238 338.36920393 C44.24969397 392.24613796 44.1251374 446.12306963 44 500 C29.15 500 14.3 500 -1 500 C-1.03190986 474.60416993 -1.05183179 449.20834772 -1.0625 423.8125 C-1.0629343 422.81052881 -1.06336861 421.80855762 -1.06381607 420.77622366 C-1.10209825 329.81052684 -0.82610623 238.84618043 -0.50902146 145.22435564 C-0.49997253 142.55439391 -0.49093458 139.88443215 -0.48189783 137.21447039 C-0.32701781 91.47629291 -0.16623279 45.7381376 0 0 Z " fill="#FB7F29" transform="translate(228,0)"/>
<path d="M0 0 C0.33 0 0.66 0 1 0 C1.33 102.63 1.66 205.26 2 311 C1.34 311 0.68 311 0 311 C0 373.37 0 435.74 0 500 C-0.33 500 -0.66 500 -1 500 C-1.03346494 474.6041743 -1.05183179 449.20834493 -1.0625 423.8125 C-1.0629343 422.81052881 -1.06336861 421.80855762 -1.06381607 420.77622366 C-1.10209825 329.81052684 -0.82610623 238.84618043 -0.50902146 145.22435564 C-0.49997253 142.55439391 -0.49093458 139.88443215 -0.48189783 137.21447039 C-0.32701781 91.47629302 -0.16648748 45.73813659 0 0 Z " fill="#807F7F" transform="translate(228,0)"/>
</svg>
