<?xml version="1.0" encoding="UTF-8"?>
<svg version="1.1" xmlns="http://www.w3.org/2000/svg" width="500" height="500">
<path d="M0 0 C14.85 0 29.7 0 45 0 C45.02279474 24.02250098 45.04112094 48.04499287 45.05181217 72.06750202 C45.05691377 83.2278667 45.06386198 94.38822399 45.07543945 105.54858398 C45.08856512 118.4451492 45.09680974 131.34170907 45.09765625 144.23828125 C45.0977666 145.80644431 45.0977666 145.80644431 45.09787917 147.40628743 C45.09714009 176.62991439 44.91799766 205.82871305 44.14616776 235.04348946 C43.86868115 246.25898077 43.99395368 257.47729287 44.21118164 268.69311523 C43.97864346 271.2332924 43.18618762 272.76920572 42 275 C11.53312934 275.03640449 -18.93238919 274.93758527 -49.39891362 274.79807091 C-55.70746272 274.76938129 -62.01601645 274.74174828 -68.3245697 274.71398926 C-78.8605068 274.66749266 -89.39644098 274.62037627 -99.93237305 274.57275391 C-110.75919406 274.52381851 -121.58601674 274.4752791 -132.4128418 274.42724609 C-133.08609212 274.4242591 -133.75934245 274.4212721 -134.45299429 274.41819459 C-137.83225057 274.40320427 -141.21150688 274.38822146 -144.59076321 274.37324238 C-172.39384743 274.24999121 -200.19692489 274.12528861 -228 274 C-228 259.81 -228 245.62 -228 231 C-152.76 231 -77.52 231 0 231 C0 154.77 0 78.54 0 0 Z " fill="#FE7F27" transform="translate(228,0)"/>
<path d="M0 0 C3.63 0 7.26 0 11 0 C11 0.33 11 0.66 11 1 C7.37 1 3.74 1 0 1 C0 0.67 0 0.34 0 0 Z " fill="#F53E00" transform="translate(229,298)"/>
<path d="M0 0 C3 1 3 1 3 1 Z " fill="#BD872B" transform="translate(453,273)"/>
    <path d="M0 0 C2 1 2 1 2 1 Z " fill="#FF350A" transform="translate(399,232)"/>
</svg>
