<?xml version="1.0" encoding="UTF-8"?>
<svg version="1.1" xmlns="http://www.w3.org/2000/svg" width="500" height="500">
<path d="M0 0 C89.43 0 178.86 0 271 0 C272.14968081 49.43627465 272.14968081 49.43627465 272.11352539 69.08666992 C272.11324131 71.36884561 272.11340552 73.65102139 272.1139679 75.93319702 C272.11424729 81.95732656 272.10849423 87.98143494 272.10139394 94.00555968 C272.09501287 100.36481469 272.09454523 106.72407053 272.09336853 113.08332825 C272.09064348 123.70147039 272.08445805 134.31960586 272.07543945 144.93774414 C272.06618279 155.84790003 272.05914301 166.75805384 272.05493164 177.66821289 C272.05453756 178.68626119 272.05453756 178.68626119 272.05413551 179.72487613 C272.05282996 183.13155929 272.05156637 186.53824248 272.05032361 189.94492567 C272.04004868 217.96329016 272.02166514 245.98164187 272 274 C257.15 274 242.3 274 227 274 C226.97725718 249.8047918 226.95890822 225.60959251 226.94818783 201.41437626 C226.9430736 190.17525405 226.93612623 178.93613906 226.92456055 167.69702148 C226.91446222 157.87898851 226.90811135 148.06096075 226.90591151 138.24292272 C226.90462955 133.06439308 226.90170957 127.88587836 226.89426994 122.70735359 C226.88726786 117.79159396 226.88542966 112.87585478 226.88689232 107.96009064 C226.88662644 106.19543533 226.8847695 104.43077901 226.88079453 102.66612816 C226.83761395 82.43015519 227.50633809 62.24013841 228 42 C152.76 42 77.52 42 0 42 C0 28.14 0 14.28 0 0 Z " fill="#8BFBF7" transform="translate(0,226)"/>
<path d="M0 0 C3.63 0 7.26 0 11 0 C11 0.33 11 0.66 11 1 C7.37 1 3.74 1 0 1 C0 0.67 0 0.34 0 0 Z " fill="#F53E00" transform="translate(260,201)"/>
</svg>
