<?xml version="1.0" encoding="UTF-8"?>
<svg version="1.1" xmlns="http://www.w3.org/2000/svg" width="500" height="500">
<path d="M0 0 C89.43 0 178.86 0 271 0 C271 14.19 271 28.38 271 43 C234.74508433 43.05456768 198.49259237 43.00691254 162.23828125 42.78125 C161.43819948 42.77628824 160.63811771 42.77132648 159.81379104 42.76621437 C146.31332902 42.68215056 132.81292161 42.59041489 119.3125 42.5 C81.5378125 42.2525 81.5378125 42.2525 43 42 C43 118.56 43 195.12 43 274 C28.15 274 13.3 274 -2 274 C-2.04593546 250.53016096 -2.08243196 227.06036077 -2.10362434 203.59048748 C-2.11374519 192.68213429 -2.12741418 181.77381185 -2.15087891 170.86547852 C-2.17142609 161.30853191 -2.1838536 151.75160759 -2.18817699 142.1946395 C-2.19068631 137.17907001 -2.19612375 132.16356401 -2.21146011 127.14801598 C-2.32561207 84.7287937 -1.02254557 42.43564105 0 0 Z " fill="#8BFCF8" transform="translate(229,226)"/>
<path d="M0 0 C3.63 0 7.26 0 11 0 C11 0.33 11 0.66 11 1 C7.37 1 3.74 1 0 1 C0 0.67 0 0.34 0 0 Z " fill="#F53E00" transform="translate(260,201)"/>
<path d="M0 0 C3 1 3 1 3 1 Z " fill="#BD882B" transform="translate(44,226)"/>
<path d="M0 0 C2 1 2 1 2 1 Z " fill="#FF350A" transform="translate(99,267)"/>
</svg>
