<?xml version="1.0" encoding="UTF-8"?>
<svg version="1.1" xmlns="http://www.w3.org/2000/svg" width="500" height="500">
<path d="M0 0 C14.19 0 28.38 0 43 0 C43 75.24 43 150.48 43 228 C119.23 228 195.46 228 274 228 C274 242.85 274 257.7 274 273 C249.97749902 273.02279474 225.95500713 273.04112094 201.93249798 273.05181217 C190.7721333 273.05691377 179.61177601 273.06386198 168.45141602 273.07543945 C155.5548508 273.08856512 142.65829093 273.09680974 129.76171875 273.09765625 C128.19355569 273.0977666 128.19355569 273.0977666 126.59371257 273.09787917 C97.37008561 273.09714009 68.17128695 272.91799766 38.95651054 272.14616776 C27.74101923 271.86868115 16.52270713 271.99395368 5.30688477 272.21118164 C2.7667076 271.97864346 1.23079428 271.18618762 -1 270 C-1.03640449 239.53312934 -0.93758527 209.06761081 -0.79807091 178.60108638 C-0.76938129 172.29253728 -0.74174828 165.98398355 -0.71398926 159.6754303 C-0.66749266 149.1394932 -0.62037627 138.60355902 -0.57275391 128.06762695 C-0.52381851 117.24080594 -0.4752791 106.41398326 -0.42724609 95.5871582 C-0.4242591 94.91390788 -0.4212721 94.24065755 -0.41819459 93.54700571 C-0.40320427 90.16774943 -0.38822146 86.78849312 -0.37324238 83.40923679 C-0.24999121 55.60615257 -0.12528861 27.80307511 0 0 Z " fill="#FE7F27" transform="translate(226,0)"/>
<path d="M0 0 C0.33 0 0.66 0 1 0 C1 3.63 1 7.26 1 11 C0.67 11 0.34 11 0 11 C0 7.37 0 3.74 0 0 Z " fill="#F53E00" transform="translate(201,229)"/>
<path d="" fill="#BD872B" transform="translate(0,0)"/>
<path d="" fill="#FF350A" transform="translate(0,0)"/>
</svg>
