<?xml version="1.0" encoding="UTF-8"?>
<svg version="1.1" xmlns="http://www.w3.org/2000/svg" width="500" height="500">
<path d="M0 0 C73.66578922 -0.06818272 147.33055355 0.02030465 220.99609375 0.21875 C222.52190224 0.22285487 222.52190224 0.22285487 224.07853514 0.22704268 C250.14400065 0.29724148 276.20945657 0.37071718 302.27490962 0.44538212 C317.38777935 0.48864177 332.50065145 0.53098956 347.61352539 0.57275391 C348.69430886 0.5757409 349.77509233 0.5787279 350.88862681 0.58180541 C356.31631478 0.59680153 361.74400279 0.61178316 367.17169082 0.62675762 C411.4478003 0.74892944 455.7239022 0.87367341 500 1 C500 14.53 500 28.06 500 42 C464.2417607 42.02989435 428.48352375 42.05094001 392.72527397 42.06185675 C390.63269893 42.06249764 388.5401239 42.06315667 386.44754887 42.06381607 C313.21706719 42.08651419 239.98762085 42.0145797 111.46573722 41.50902146 C109.3674402 41.49996738 107.2691431 41.49093161 105.17084599 41.48189783 C70.1138514 41.330846 35.05691031 41.16953567 0 41 C0 27.47 0 13.94 0 0 Z " fill="#8BFFFB" transform="translate(0,226)"/>
</svg>
