<?xml version="1.0" encoding="UTF-8"?>
<svg version="1.1" xmlns="http://www.w3.org/2000/svg" width="500" height="500">
<path d="M0 0 C57.36274806 -0.07901285 114.72164621 0.11489865 172.0834024 0.44538212 C182.91683345 0.50770213 193.75027912 0.56729341 204.58372617 0.62675762 C226.72250073 0.74833212 248.86125376 0.87336586 271 1 C271 14.53 271 28.06 271 42 C195.76 42 120.52 42 43 42 C43 118.56 43 195.12 43 274 C28.15 274 13.3 274 -2 274 C-2.04593546 250.53016096 -2.08243196 227.06036077 -2.10362434 203.59048748 C-2.11374519 192.68213421 -2.12747006 181.77381201 -2.15087891 170.86547852 C-2.27077009 113.87770714 -1.72922666 56.96325267 0 0 Z " fill="#FE7F27" transform="translate(229,226)"/>
<path d="M0 0 C0.33 0 0.66 0 1 0 C1 76.56 1 153.12 1 232 C0.67 232 0.34 232 0 232 C0 169.63 0 107.26 0 43 C-2.31 42.67 -4.62 42.34 -7 42 C-9.97305511 40.30026531 -12.45018474 38.09963051 -14 35 C-14.6021891 30.40354395 -15.06807191 25.88966568 -12.73046875 21.75390625 C-10.66452597 19.33609973 -8.85738098 17.42869049 -6 16 C-4.02 16 -2.04 16 0 16 C0 10.72 0 5.44 0 0 Z " fill="#BD7E54" transform="translate(271,268)"/>
<path d="M0 0 C0.33 0 0.66 0 1 0 C1.33 13.86 1.66 27.72 2 42 C1.34 42 0.68 42 0 42 C0 104.37 0 166.74 0 231 C-0.33 231 -0.66 231 -1 231 C-1.02355578 206.78752385 -1.04108888 182.57504946 -1.05181217 158.36256409 C-1.05692765 147.11556613 -1.06387756 135.86857536 -1.07543945 124.62158203 C-1.08553379 114.79733271 -1.09188775 104.9730886 -1.09408849 95.14883423 C-1.09537109 89.96642407 -1.09829553 84.78402882 -1.10573006 79.60162354 C-1.14237088 53.05142533 -0.81273328 26.53829963 0 0 Z " fill="#7F7F7F" transform="translate(228,269)"/>
<path d="M0 0 C0 0.33 0 0.66 0 1 C-1.65 1 -3.3 1 -5 1 C-5.2475 1.5775 -5.495 2.155 -5.75 2.75 C-7 5 -7 5 -9.125 6.5625 C-11.82786276 10.07622159 -11.61674111 13.09534234 -11.44921875 17.43359375 C-11.18152773 20.21226128 -11.18152773 20.21226128 -8.875 22.5625 C-5.95924306 24.02037847 -3.13915099 25.12395786 0 26 C0 26.33 0 26.66 0 27 C-6.15423406 26.63074596 -8.72703501 25.17122773 -13 21 C-14.99765403 17.00469193 -14.64943255 12.33153639 -14 8 C-10.48462825 1.78049613 -7.02512825 -0.15272018 0 0 Z " fill="#E58F59" transform="translate(271,284)"/>
<path d="M0 0 C0.33 0 0.66 0 1 0 C1.33 13.86 1.66 27.72 2 42 C1.01 42 0.02 42 -1 42 C-0.67 28.14 -0.34 14.28 0 0 Z " fill="#706961" transform="translate(228,269)"/>
<path d="M0 0 C3.63 0 7.26 0 11 0 C11 0.33 11 0.66 11 1 C7.37 1 3.74 1 0 1 C0 0.67 0 0.34 0 0 Z " fill="#F53E00" transform="translate(260,201)"/>
<path d="M0 0 C3 1 3 1 3 1 Z " fill="#BD882B" transform="translate(44,226)"/>
<path d="M0 0 C2 1 2 1 2 1 Z " fill="#FF350A" transform="translate(99,267)"/>
</svg>
