<?xml version="1.0" encoding="UTF-8"?>
<svg version="1.1" xmlns="http://www.w3.org/2000/svg" width="500" height="500">
<path d="M0 0 C14.85 0 29.7 0 45 0 C45.05456768 36.25491567 45.00691254 72.50740763 44.78125 108.76171875 C44.77380736 109.96184141 44.77380736 109.96184141 44.76621437 111.18620896 C44.68215056 124.68667098 44.59041489 138.18707839 44.5 151.6875 C44.335 176.870625 44.17 202.05375 44 228 C120.23 228 196.46 228 275 228 C275 242.85 275 257.7 275 273 C251.51289139 273.02296216 228.02579247 273.04121298 204.53867531 273.05181217 C193.62245899 273.0568739 182.70625045 273.06374568 171.79003906 273.07543945 C127.71163785 273.12151871 83.63459597 273.11183151 39.55814695 272.64847255 C36.85016912 272.62123689 34.14218144 272.59755047 31.43416214 272.57484627 C27.25572861 272.53920996 23.07752908 272.49360539 18.89929438 272.43953824 C17.37818559 272.42126906 15.8570336 272.40626875 14.33585882 272.39473605 C12.27618396 272.37836904 10.21704541 272.34981616 8.15756226 272.31785583 C7.0087879 272.30472068 5.86001354 272.29158552 4.67642784 272.27805233 C2 272 2 272 0 270 C-0.24839699 268.02035511 -0.24839699 268.02035511 -0.24609566 265.53721428 C-0.25007775 264.59271538 -0.25405985 263.64821647 -0.25816262 262.67509639 C-0.24942409 261.10800086 -0.24942409 261.10800086 -0.24050903 259.50924683 C-0.24221788 258.40497884 -0.24392673 257.30071085 -0.24568737 256.1629802 C-0.24899926 252.43785316 -0.23795061 248.71290359 -0.22705078 244.98779297 C-0.22648703 242.32742912 -0.22671431 239.66707636 -0.22793579 237.00671387 C-0.22898605 231.26633723 -0.22269479 225.52600595 -0.21146011 219.78564072 C-0.19522709 211.48597583 -0.18999937 203.18633295 -0.18748413 194.88665392 C-0.18310357 181.42198209 -0.16978469 167.95733446 -0.15087891 154.49267578 C-0.13252944 141.41064577 -0.11836837 128.32862231 -0.10986328 115.24658203 C-0.10933783 114.44061867 -0.10881239 113.63465531 -0.10827102 112.80426882 C-0.105661 108.76111089 -0.10313357 104.71795292 -0.10064721 100.67479491 C-0.07990347 67.11651167 -0.04411888 33.55826049 0 0 Z " fill="#8CFEFA" transform="translate(225,0)"/>
<path d="M0 0 C0.33 0 0.66 0 1 0 C1 3.63 1 7.26 1 11 C0.67 11 0.34 11 0 11 C0 7.37 0 3.74 0 0 Z " fill="#F53E00" transform="translate(201,229)"/>
<path d="" fill="#BD872B" transform="translate(0,0)"/>
<path d="" fill="#FF350A" transform="translate(0,0)"/>
</svg>
