<?xml version="1.0" encoding="UTF-8"?>
<svg version="1.1" xmlns="http://www.w3.org/2000/svg" width="500" height="500">
<path d="M0 0 C46.99875792 -0.03002011 93.99751604 -0.05065797 140.99628228 -0.06185675 C143.6791248 -0.062498 146.36196731 -0.06315685 149.04480982 -0.06381607 C240.01094375 -0.08581252 330.97505554 -0.06312288 424.9375 0.5 C426.43314397 0.50896057 426.43314397 0.50896057 427.95900297 0.51810217 C451.9727936 0.66227749 475.98643311 0.82243306 500 1 C500 14.53 500 28.06 500 42 C445.97881891 42.02273747 391.95763899 42.04057962 337.93645404 42.05106533 C331.51858979 42.05231562 325.10072556 42.05360999 318.68286133 42.05493164 C316.76681923 42.05532511 316.76681923 42.05532511 314.81206921 42.05572652 C294.29054318 42.0600451 273.76902002 42.06791102 253.24749567 42.0771528 C232.09673021 42.08659653 210.94596622 42.09207794 189.79519874 42.09408849 C177.95471257 42.0953222 166.1142324 42.09824416 154.2737484 42.10573006 C102.8388697 42.1373391 51.42628252 41.9978978 0 41 C0 27.47 0 13.94 0 0 Z " fill="#FE7F27" transform="translate(0,226)"/>
</svg>
