<?xml version="1.0" encoding="UTF-8"?>
<svg version="1.1" xmlns="http://www.w3.org/2000/svg" width="500" height="500">
<path d="M0 0 C46.17012682 -0.62658457 46.17012682 -0.62658457 57.08300781 6.33154297 C59.14665222 8.49275921 59.4123508 10.13512789 59.73535156 13.06201172 C60.73115234 12.64628906 60.73115234 12.64628906 61.74707031 12.22216797 C63.07158203 11.67882812 63.07158203 11.67882812 64.42285156 11.12451172 C65.29296875 10.76486328 66.16308594 10.40521484 67.05957031 10.03466797 C76.86141802 6.47166055 87.3892363 7.68752021 96.80175781 12.01123047 C98.97629415 13.33691166 100.50200698 14.40370278 101.36981201 16.85194397 C101.79567824 19.42674937 101.87778112 21.8748502 101.89648438 24.4855957 C101.90609192 25.57029648 101.91569946 26.65499725 101.92559814 27.77256775 C101.93197296 29.52265892 101.93197296 29.52265892 101.93847656 31.30810547 C101.94417664 32.51136978 101.94987671 33.71463409 101.95574951 34.95436096 C101.96519318 37.49878054 101.97173098 40.04321231 101.97558594 42.58764648 C101.98530538 46.4810104 102.0163413 50.37384949 102.04785156 54.26708984 C102.05438042 56.73909192 102.05963135 59.21109776 102.06347656 61.68310547 C102.07582336 62.84780869 102.08817017 64.0125119 102.10089111 65.21250916 C102.09789001 66.30036209 102.09488892 67.38821503 102.09179688 68.5090332 C102.0954425 69.46293442 102.09908813 70.41683563 102.10284424 71.39964294 C101.66179749 74.59488785 100.61021275 76.4582079 98.73535156 79.06201172 C96.36035156 80.74951172 96.36035156 80.74951172 93.73535156 82.06201172 C93.03667969 82.41263672 92.33800781 82.76326172 91.61816406 83.12451172 C87.69985466 84.39875868 84.08105657 84.40241104 79.98535156 84.37451172 C79.18347412 84.37177246 78.38159668 84.3690332 77.55541992 84.36621094 C70.39081527 84.23950688 64.8240386 83.12113641 58.73535156 79.06201172 C58.89708831 80.13509834 59.05882505 81.20818497 59.22546291 82.31378937 C59.91611908 87.88263866 59.88860927 93.42896154 59.89356995 99.03356934 C59.89850792 100.22463492 59.9034459 101.4157005 59.90853351 102.64285898 C59.92119301 105.93124247 59.92951026 109.21960326 59.93596017 112.50800371 C59.94399854 116.06073734 59.95768437 119.61344985 59.97067261 123.16616821 C59.99238681 129.31566198 60.01054968 135.46515792 60.02627754 141.6146698 C60.04902236 150.50575234 60.0771587 159.39681144 60.10659682 168.28787404 C60.1542163 182.71420384 60.19749571 197.14054324 60.23803711 211.56689453 C60.2774208 225.57796984 60.31885388 239.58903663 60.36303711 253.60009766 C60.36576138 254.46422459 60.36848565 255.32835152 60.37129248 256.21866411 C60.38497243 260.5538798 60.39869261 264.88909537 60.41243279 269.22431087 C60.52630887 305.17019343 60.63313776 341.1160942 60.73535156 377.06201172 C61.27224609 376.78196289 61.80914062 376.50191406 62.36230469 376.21337891 C63.07322266 375.84889648 63.78414063 375.48441406 64.51660156 375.10888672 C65.21849609 374.74633789 65.92039062 374.38378906 66.64355469 374.01025391 C74.81724489 370.30500032 85.34114536 371.63246911 93.73535156 374.06201172 C97.01617078 375.42750922 99.93808621 376.82123451 101.91503906 379.89794922 C102.84781345 382.35869689 102.93745571 384.19047068 102.86035156 386.81201172 C102.84230469 387.61123047 102.82425781 388.41044922 102.80566406 389.23388672 C102.77085937 390.13880859 102.77085937 390.13880859 102.73535156 391.06201172 C103.36318039 391.05534988 103.99100922 391.04868805 104.63786316 391.04182434 C111.17527137 390.97542789 117.7125837 390.93019309 124.25024414 390.8972168 C126.68973685 390.88213518 129.12920246 390.86166703 131.56860352 390.83569336 C135.07607715 390.7992836 138.58319211 390.78227883 142.09082031 390.76904297 C143.18057663 390.75355911 144.27033295 390.73807526 145.39311218 390.72212219 C154.5875839 390.720081 154.5875839 390.720081 158.73535156 394.06201172 C161.05416086 395.09428034 163.3933384 396.05010725 165.74707031 396.99951172 C167.73535156 398.06201172 167.73535156 398.06201172 169.73535156 401.06201172 C170.72895357 407.48816497 169.09152753 413.12949723 166.73535156 419.06201172 C166.07535156 419.06201172 165.41535156 419.06201172 164.73535156 419.06201172 C164.40535156 420.71201172 164.07535156 422.36201172 163.73535156 424.06201172 C163.07535156 424.06201172 162.41535156 424.06201172 161.73535156 424.06201172 C161.48785156 424.70138672 161.24035156 425.34076172 160.98535156 425.99951172 C159.73535156 428.06201172 159.73535156 428.06201172 157.67285156 428.62451172 C157.03347656 428.76888672 156.39410156 428.91326172 155.73535156 429.06201172 C155.40535156 430.05201172 155.07535156 431.04201172 154.73535156 432.06201172 C137.57535156 432.06201172 120.41535156 432.06201172 102.73535156 432.06201172 C102.73535156 434.04201172 102.73535156 436.02201172 102.73535156 438.06201172 C100.96746343 442.70271806 98.14356228 444.21965208 93.86816406 446.26513672 C85.03716251 449.5646318 73.58756039 449.2098877 64.73535156 446.06201172 C62.17285156 444.43701172 62.17285156 444.43701172 60.73535156 443.06201172 C60.69410156 444.32013672 60.65285156 445.57826172 60.61035156 446.87451172 C60.32910156 449.09716797 60.32910156 449.09716797 59.73535156 451.06201172 C57.11035156 452.81201172 57.11035156 452.81201172 53.73535156 454.06201172 C52.70410156 454.74263672 51.67285156 455.42326172 50.61035156 456.12451172 C39.61644139 462.30647987 24.13794963 460.51254732 11.92285156 460.68701172 C9.75602002 460.7215473 7.5891906 460.75621643 5.42236328 460.79101562 C1.13889558 460.85784321 -3.14460628 460.91772591 -7.42822266 460.97412109 C-11.65305749 461.03251125 -15.87549896 461.12186989 -20.09901428 461.24084473 C-34.68720098 461.64329881 -48.72408727 460.8076917 -63.13964844 458.68701172 C-63.89799988 458.57605164 -64.65635132 458.46509155 -65.43768311 458.35076904 C-74.60397763 456.97766821 -74.60397763 456.97766821 -78.26464844 456.06201172 C-79.41279841 453.76571178 -79.57234652 451.98503086 -79.82714844 449.43701172 C-79.9109375 448.61974609 -79.99472656 447.80248047 -80.08105469 446.96044922 C-80.14164063 446.33396484 -80.20222656 445.70748047 -80.26464844 445.06201172 C-80.96589844 445.51576172 -81.66714844 445.96951172 -82.38964844 446.43701172 C-88.2301469 449.73816302 -93.43900429 450.45080147 -100.01464844 450.43701172 C-101.20682983 450.43459473 -101.20682983 450.43459473 -102.4230957 450.43212891 C-108.50426859 450.30552831 -114.12477909 449.58276789 -119.26464844 446.06201172 C-122.11097821 442.95440369 -122.61707399 440.99012579 -122.45214844 436.81201172 C-122.41154297 435.47396484 -122.41154297 435.47396484 -122.37011719 434.10888672 C-122.3353125 433.43341797 -122.30050781 432.75794922 -122.26464844 432.06201172 C-123.33095993 432.07089417 -124.39727142 432.07977661 -125.49589539 432.08892822 C-135.54540487 432.1700188 -145.59484797 432.22997943 -155.6446104 432.26926041 C-160.81130803 432.29013413 -165.97774151 432.31844806 -171.14428711 432.36376953 C-176.13042102 432.40723463 -181.11630089 432.43115044 -186.10260963 432.44152069 C-188.00483004 432.44891085 -189.90703655 432.46334212 -191.80914879 432.48493195 C-194.47390145 432.51397485 -197.13760473 432.51796737 -199.80249023 432.51611328 C-200.58867737 432.53049438 -201.3748645 432.54487549 -202.18487549 432.55969238 C-207.2175405 432.52180976 -209.70953532 431.61146961 -213.26464844 428.06201172 C-214.15152344 427.19576172 -215.03839844 426.32951172 -215.95214844 425.43701172 C-216.71527344 424.65326172 -217.47839844 423.86951172 -218.26464844 423.06201172 C-218.92464844 422.40201172 -219.58464844 421.74201172 -220.26464844 421.06201172 C-221.00489091 417.46654827 -220.01310113 415.28166607 -218.20214844 412.24951172 C-210.58570589 400.83569754 -210.58570589 400.83569754 -205.26464844 399.06201172 C-205.26464844 398.40201172 -205.26464844 397.74201172 -205.26464844 397.06201172 C-204.60464844 397.06201172 -203.94464844 397.06201172 -203.26464844 397.06201172 C-202.27464844 395.08201172 -202.27464844 395.08201172 -201.26464844 393.06201172 C-200.60464844 393.06201172 -199.94464844 393.06201172 -199.26464844 393.06201172 C-199.26464844 392.40201172 -199.26464844 391.74201172 -199.26464844 391.06201172 C-173.85464844 391.06201172 -148.44464844 391.06201172 -122.26464844 391.06201172 C-122.26464844 388.42201172 -122.26464844 385.78201172 -122.26464844 383.06201172 C-118.9469433 378.39648887 -114.65498557 376.55186556 -109.26464844 375.06201172 C-106.27051709 374.66931141 -103.3435513 374.63232011 -100.32714844 374.68701172 C-99.14572266 374.69788818 -99.14572266 374.69788818 -97.94042969 374.70898438 C-91.51771863 374.86184277 -85.04481926 375.28184089 -80.26464844 380.06201172 C-79.35418117 372.61138556 -79.12465705 365.27503654 -79.14439392 357.77401733 C-79.1435395 356.5730758 -79.14268507 355.37213426 -79.14180475 354.13480055 C-79.14044993 350.82811206 -79.14354652 347.52148369 -79.14858282 344.2148025 C-79.15292332 340.63893945 -79.15143835 337.06307808 -79.15068054 333.48721313 C-79.15015758 327.30063823 -79.15328054 321.11407392 -79.15891838 314.92750168 C-79.1670643 305.98288682 -79.16965177 297.03827705 -79.17090637 288.09365888 C-79.17309204 273.57968896 -79.17973895 259.06572467 -79.18920898 244.55175781 C-79.19839566 230.45735706 -79.20547035 216.36295784 -79.2097168 202.26855469 C-79.20997952 201.39897921 -79.21024224 200.52940374 -79.21051293 199.63347749 C-79.21181802 195.27083504 -79.21308171 190.90819258 -79.21432483 186.54555011 C-79.22468233 150.38436667 -79.24228743 114.22318963 -79.26464844 78.06201172 C-79.86792969 78.33916016 -80.47121094 78.61630859 -81.09277344 78.90185547 C-81.89199219 79.26408203 -82.69121094 79.62630859 -83.51464844 79.99951172 C-84.30355469 80.35916016 -85.09246094 80.71880859 -85.90527344 81.08935547 C-96.56833291 85.48521939 -107.94008516 83.29772999 -118.26464844 79.06201172 C-118.26464844 78.40201172 -118.26464844 77.74201172 -118.26464844 77.06201172 C-118.92464844 77.06201172 -119.58464844 77.06201172 -120.26464844 77.06201172 C-121.61609498 74.35911864 -121.38440009 72.26131366 -121.37817383 69.23535156 C-121.37806053 67.40367935 -121.37806053 67.40367935 -121.37794495 65.53500366 C-121.37283796 64.19765177 -121.36762195 62.86030029 -121.36230469 61.52294922 C-121.36043984 60.15817313 -121.35901625 58.79339638 -121.35801697 57.42861938 C-121.35419707 53.83486079 -121.34437127 50.24114254 -121.33331299 46.6473999 C-121.32308755 42.98092189 -121.31851692 39.31443737 -121.31347656 35.64794922 C-121.30274854 28.45261831 -121.28567843 21.25732067 -121.26464844 14.06201172 C-120.27464844 13.73201172 -119.28464844 13.40201172 -118.26464844 13.06201172 C-118.26464844 12.40201172 -118.26464844 11.74201172 -118.26464844 11.06201172 C-108.47781688 6.64834259 -97.60068941 4.99633711 -87.13964844 8.43701172 C-84.42712322 9.48191443 -81.85213241 10.73951991 -79.26464844 12.06201172 C-79.26464844 9.75201172 -79.26464844 7.44201172 -79.26464844 5.06201172 C-52.83846083 2.66311669 -26.54277754 0.38749119 0 0 Z " fill="#000000" transform="translate(263.2646484375,25.93798828125)"/>
<path d="M0 0 C2.54493301 2.26980512 2.77884542 2.8360016 3.3125 6.0625 C3.4125332 7.86839058 3.460676 9.67747138 3.47363281 11.48608398 C3.48324036 12.57078476 3.4928479 13.65548553 3.50274658 14.77305603 C3.50699646 15.93978348 3.51124634 17.10651093 3.515625 18.30859375 C3.52132507 19.51185806 3.52702515 20.71512238 3.53289795 21.95484924 C3.54234162 24.49926882 3.54887942 27.04370059 3.55273438 29.58813477 C3.56245381 33.48149868 3.59348974 37.37433777 3.625 41.26757812 C3.63152885 43.7395802 3.63677979 46.21158605 3.640625 48.68359375 C3.6529718 49.84829697 3.6653186 51.01300018 3.67803955 52.21299744 C3.67503845 53.30085037 3.67203735 54.38870331 3.66894531 55.50952148 C3.67441376 56.94037331 3.67441376 56.94037331 3.67999268 58.40013123 C3.23894592 61.59537613 2.18736119 63.45869618 0.3125 66.0625 C-2.0625 67.75 -2.0625 67.75 -4.6875 69.0625 C-5.38617188 69.413125 -6.08484375 69.76375 -6.8046875 70.125 C-10.72254347 71.3990995 -14.34210852 71.40416223 -18.4375 71.375 C-19.64140381 71.36762817 -19.64140381 71.36762817 -20.86962891 71.36010742 C-32.04688949 71.13874181 -32.04688949 71.13874181 -36.6875 68.0625 C-40.15120272 64.39210056 -41.18733547 62.17558998 -41.17333984 57.14233398 C-41.1794931 55.97439804 -41.18564636 54.8064621 -41.19198608 53.60313416 C-41.17761505 52.35093582 -41.16324402 51.09873749 -41.1484375 49.80859375 C-41.14752106 48.51558853 -41.14660461 47.22258331 -41.1456604 45.89039612 C-41.14253944 43.15921391 -41.12602831 40.42855928 -41.09912109 37.69750977 C-41.06510802 34.20149557 -41.0574939 30.70605925 -41.05901146 27.20989895 C-41.05833616 23.86772018 -41.04065661 20.52572992 -41.0234375 17.18359375 C-41.02121185 15.92937119 -41.01898621 14.67514862 -41.01669312 13.38291931 C-41.00393341 12.21813553 -40.99117371 11.05335175 -40.97802734 9.85327148 C-40.97040375 8.82910629 -40.96278015 7.8049411 -40.95492554 6.7497406 C-40.68127066 3.99990412 -40.19076019 2.36479093 -38.6875 0.0625 C-36.48046875 -1.16796875 -36.48046875 -1.16796875 -33.875 -2.125 C-33.02292969 -2.44855469 -32.17085938 -2.77210937 -31.29296875 -3.10546875 C-21.12408978 -6.35280191 -9.28499462 -5.66049069 0 0 Z " fill="#575757" transform="translate(361.6875,38.9375)"/>
<path d="M0 0 C4.25197659 4.3714703 3.12793354 11.03373298 3.08276367 16.70581055 C3.0875473 18.01864014 3.09233093 19.33146973 3.09725952 20.68408203 C3.10461603 23.45822682 3.09396704 26.23156457 3.07055664 29.00561523 C3.04206689 32.55360653 3.05847781 36.09970681 3.08841896 39.64762878 C3.11087822 43.04217251 3.09513276 46.43621316 3.08276367 49.83081055 C3.09288483 51.10174561 3.10300598 52.37268066 3.11343384 53.68212891 C2.9832288 63.46955432 2.9832288 63.46955432 0 66.53662109 C-7.82637653 71.787022 -16.33193479 72.2223709 -25.58129883 71.26831055 C-29.71400679 70.22268564 -33.63925951 68.88555745 -37.58129883 67.26831055 C-37.58129883 66.60831055 -37.58129883 65.94831055 -37.58129883 65.26831055 C-38.24129883 65.26831055 -38.90129883 65.26831055 -39.58129883 65.26831055 C-40.93274537 62.56541747 -40.70105048 60.46761248 -40.69482422 57.44165039 C-40.69471092 55.60997818 -40.69471092 55.60997818 -40.69459534 53.74130249 C-40.68948835 52.4039506 -40.68427235 51.06659912 -40.67895508 49.72924805 C-40.67709023 48.36447196 -40.67566664 46.99969521 -40.67466736 45.63491821 C-40.67084746 42.04115962 -40.66102166 38.44744137 -40.64996338 34.85369873 C-40.63973794 31.18722072 -40.63516731 27.5207362 -40.63012695 23.85424805 C-40.61939893 16.65891714 -40.60232882 9.4636195 -40.58129883 2.26831055 C-39.59129883 1.93831055 -38.60129883 1.60831055 -37.58129883 1.26831055 C-37.58129883 0.60831055 -37.58129883 -0.05168945 -37.58129883 -0.73168945 C-25.70304027 -6.08855115 -11.26866174 -7.55969145 0 0 Z " fill="#575757" transform="translate(182.581298828125,37.731689453125)"/>
<path d="M0 0 C1.88543996 2.95030638 2.25060965 5.21646936 2.1875 8.6875 C2.18105469 9.47511719 2.17460937 10.26273437 2.16796875 11.07421875 C2 13 2 13 1 14 C-0.38160115 14.0927833 -1.76788038 14.11747043 -3.15258789 14.11352539 C-4.03342545 14.11344986 -4.914263 14.11337433 -5.8217926 14.11329651 C-6.77907761 14.10813522 -7.73636261 14.10297394 -8.72265625 14.09765625 C-9.69786728 14.0962413 -10.67307831 14.09482635 -11.67784119 14.09336853 C-14.80609143 14.08775133 -17.93427123 14.07519593 -21.0625 14.0625 C-23.17773334 14.05748722 -25.29296781 14.05292393 -27.40820312 14.04882812 C-32.60549296 14.03777631 -37.80274145 14.02102146 -43 14 C-43.02715793 12.56911647 -43.04646741 11.13808267 -43.0625 9.70703125 C-43.07410156 8.91014893 -43.08570313 8.1132666 -43.09765625 7.29223633 C-42.94791738 3.7774908 -42.09714601 1.81803995 -40 -1 C-28.70653748 -8.93594664 -11.04297465 -7.82210704 0 0 Z " fill="#565656" transform="translate(364,404)"/>
<path d="M0 0 C14.19 0 28.38 0 43 0 C43 3.96 43 7.92 43 12 C37.04302413 17.95697587 30.06957233 18.33965223 22.0625 18.4375 C15.2684588 18.40336959 8.78213709 17.96070278 3 14 C0 10 0 10 0 0 Z " fill="#575757" transform="translate(141,458)"/>
<path d="M0 0 C0.78834229 0.00797607 1.57668457 0.01595215 2.38891602 0.02416992 C8.5964405 0.1762931 14.78146198 0.57260752 19.72265625 4.79296875 C23.04609818 8.71714945 22.0625 12.02633449 22.0625 17.375 C7.5425 17.375 -6.9775 17.375 -21.9375 17.375 C-21.9375 8.375 -21.9375 8.375 -19.9375 5.5 C-13.57892662 0.99601052 -7.60121649 -0.13861662 0 0 Z " fill="#555555" transform="translate(162.9375,400.625)"/>
<path d="M0 0 C14.85 0 29.7 0 45 0 C45 7.4375 45 7.4375 42 11 C32.73466346 16.97634262 21.63763372 17.2668668 11 15.25 C7.24111628 14.26372409 4.70807676 12.87220263 2 10 C-0.01938398 6.24971547 0 4.46474418 0 0 Z " fill="#575757" transform="translate(321,458)"/>
</svg>
