<?xml version="1.0" encoding="UTF-8"?>
<svg version="1.1" xmlns="http://www.w3.org/2000/svg" width="500" height="500">
<path d="M0 0 C7.24186411 1.1020228 13.9614446 7.26662623 18.875 12.4375 C19.37 13.9225 19.37 13.9225 19.875 15.4375 C20.535 15.4375 21.195 15.4375 21.875 15.4375 C21.875 16.0975 21.875 16.7575 21.875 17.4375 C23.195 18.0975 24.515 18.7575 25.875 19.4375 C25.875 20.0975 25.875 20.7575 25.875 21.4375 C26.535 21.4375 27.195 21.4375 27.875 21.4375 C27.875 46.8475 27.875 72.2575 27.875 98.4375 C30.515 98.4375 33.155 98.4375 35.875 98.4375 C40.54052285 101.75520514 42.38514616 106.04716286 43.875 111.4375 C44.26770031 114.43163135 44.3046916 117.35859714 44.25 120.375 C44.23912354 121.55642578 44.23912354 121.55642578 44.22802734 122.76171875 C44.07516895 129.18442981 43.65517083 135.65732917 38.875 140.4375 C46.32562616 141.34796727 53.66197518 141.57749139 61.16299438 141.55775452 C62.36393592 141.55860894 63.56487746 141.55946337 64.80221117 141.56034368 C68.10889966 141.56169851 71.41552803 141.55860192 74.72220922 141.55356562 C78.29807226 141.54922512 81.87393364 141.55071009 85.44979858 141.5514679 C91.63637349 141.55199086 97.8229378 141.5488679 104.00951004 141.54323006 C112.9541249 141.53508414 121.89873467 141.53249667 130.84335284 141.53124207 C145.35732276 141.5290564 159.87128704 141.52240948 174.38525391 141.51293945 C188.47965466 141.50375277 202.57405388 141.49667808 216.66845703 141.49243164 C217.53803251 141.49216892 218.40760798 141.49190619 219.30353422 141.49163551 C223.66617668 141.49033042 228.02881914 141.48906672 232.39146161 141.48782361 C268.55264505 141.47746611 304.71382209 141.45986101 340.875 141.4375 C340.59785156 140.83421875 340.32070313 140.2309375 340.03515625 139.609375 C339.67292969 138.81015625 339.31070312 138.0109375 338.9375 137.1875 C338.57785156 136.39859375 338.21820313 135.6096875 337.84765625 134.796875 C333.45179233 124.13381553 335.63928173 112.76206328 339.875 102.4375 C340.535 102.4375 341.195 102.4375 341.875 102.4375 C341.875 101.7775 341.875 101.1175 341.875 100.4375 C344.57789308 99.08605346 346.67569806 99.31774835 349.70166016 99.32397461 C350.92277496 99.32405014 352.14388977 99.32412567 353.40200806 99.32420349 C354.73935995 99.32931048 356.07671143 99.33452648 357.4140625 99.33984375 C358.77883859 99.3417086 360.14361534 99.34313219 361.50839233 99.34413147 C365.10215093 99.34795137 368.69586917 99.35777717 372.28961182 99.36883545 C375.95608982 99.37906089 379.62257435 99.38363152 383.2890625 99.38867188 C390.48439341 99.3993999 397.67969105 99.41647001 404.875 99.4375 C405.205 100.4275 405.535 101.4175 405.875 102.4375 C406.535 102.4375 407.195 102.4375 407.875 102.4375 C412.28866913 112.22433155 413.9406746 123.10145903 410.5 133.5625 C409.45509729 136.27502522 408.19749181 138.85001603 406.875 141.4375 C409.185 141.4375 411.495 141.4375 413.875 141.4375 C418.60214833 193.51168715 418.60214833 193.51168715 418.875 216.4375 C418.89558335 217.85905074 418.9162589 219.28060016 418.93701172 220.70214844 C419.56359629 266.87227526 419.56359629 266.87227526 412.60546875 277.78515625 C410.44425251 279.84880065 408.80188383 280.11449924 405.875 280.4375 C406.29072266 281.43330078 406.29072266 281.43330078 406.71484375 282.44921875 C407.07707031 283.33222656 407.43929688 284.21523438 407.8125 285.125 C408.17214844 285.99511719 408.53179687 286.86523438 408.90234375 287.76171875 C412.46535116 297.56356646 411.24949151 308.09138474 406.92578125 317.50390625 C405.60010006 319.67844259 404.53330894 321.20415542 402.08506775 322.07196045 C399.51026235 322.49782667 397.06216152 322.57992956 394.45141602 322.59863281 C393.36671524 322.60824036 392.28201447 322.6178479 391.16444397 322.62774658 C389.99771652 322.63199646 388.83098907 322.63624634 387.62890625 322.640625 C385.82400978 322.64917511 385.82400978 322.64917511 383.98265076 322.65789795 C381.43823118 322.66734162 378.89379941 322.67387942 376.34936523 322.67773438 C372.45600132 322.68745381 368.56316223 322.71848974 364.66992188 322.75 C362.1979198 322.75652885 359.72591395 322.76177979 357.25390625 322.765625 C356.08920303 322.7779718 354.92449982 322.7903186 353.72450256 322.80303955 C352.63664963 322.80003845 351.54879669 322.79703735 350.42797852 322.79394531 C349.4740773 322.79759094 348.52017609 322.80123657 347.53736877 322.80499268 C344.34212387 322.36394592 342.47880382 321.31236119 339.875 319.4375 C338.1875 317.0625 338.1875 317.0625 336.875 314.4375 C336.524375 313.73882812 336.17375 313.04015625 335.8125 312.3203125 C334.53825304 308.40200309 334.53460068 304.783205 334.5625 300.6875 C334.56523926 299.88562256 334.56797852 299.08374512 334.57080078 298.25756836 C334.69750484 291.09296371 335.81587531 285.52618704 339.875 279.4375 C338.80191338 279.59923675 337.72882675 279.76097349 336.62322235 279.92761135 C331.05437306 280.61826752 325.50805018 280.59075771 319.90344238 280.59571838 C318.11684401 280.60312535 318.11684401 280.60312535 316.29415274 280.61068195 C313.00576925 280.62334145 309.71740846 280.63165869 306.42900801 280.63810861 C302.87627437 280.64614697 299.32356187 280.65983281 295.77084351 280.67282104 C289.62134974 280.69453525 283.47185379 280.71269811 277.32234192 280.72842598 C268.43125938 280.7511708 259.54020028 280.77930714 250.64913768 280.80874526 C236.22280788 280.85636474 221.79646848 280.89964415 207.37011719 280.94018555 C193.35904188 280.97956923 179.34797509 281.02100232 165.33691406 281.06518555 C164.47278713 281.06790982 163.6086602 281.07063409 162.71834761 281.07344092 C158.38313191 281.08712087 154.04791635 281.10084105 149.71270084 281.11458123 C113.76681829 281.22845731 77.82091752 281.3352862 41.875 281.4375 C42.15504883 281.97439453 42.43509766 282.51128906 42.72363281 283.06445312 C43.08811523 283.77537109 43.45259766 284.48628906 43.828125 285.21875 C44.19067383 285.92064453 44.55322266 286.62253906 44.92675781 287.34570312 C48.6320114 295.51939333 47.30454261 306.0432938 44.875 314.4375 C43.5095025 317.71831922 42.11577721 320.64023464 39.0390625 322.6171875 C36.57831483 323.54996189 34.74654104 323.63960415 32.125 323.5625 C31.32578125 323.54445313 30.5265625 323.52640625 29.703125 323.5078125 C28.79820313 323.47300781 28.79820313 323.47300781 27.875 323.4375 C27.88499275 324.37924324 27.88499275 324.37924324 27.89518738 325.3400116 C27.96158382 331.87741981 28.00681863 338.41473214 28.03979492 344.95239258 C28.05487654 347.39188528 28.07534469 349.8313509 28.10131836 352.27075195 C28.13772812 355.77822559 28.15473289 359.28534054 28.16796875 362.79296875 C28.18345261 363.88272507 28.19893646 364.97248138 28.21488953 366.09526062 C28.21693072 375.28973234 28.21693072 375.28973234 24.875 379.4375 C23.84273137 381.7563093 22.88690447 384.09548683 21.9375 386.44921875 C20.875 388.4375 20.875 388.4375 17.875 390.4375 C11.44884675 391.43110201 5.80751449 389.79367597 -0.125 387.4375 C-0.125 386.7775 -0.125 386.1175 -0.125 385.4375 C-1.775 385.1075 -3.425 384.7775 -5.125 384.4375 C-5.125 383.7775 -5.125 383.1175 -5.125 382.4375 C-6.0840625 382.06625 -6.0840625 382.06625 -7.0625 381.6875 C-9.125 380.4375 -9.125 380.4375 -9.6875 378.375 C-9.831875 377.735625 -9.97625 377.09625 -10.125 376.4375 C-11.115 376.1075 -12.105 375.7775 -13.125 375.4375 C-13.125 358.2775 -13.125 341.1175 -13.125 323.4375 C-15.105 323.4375 -17.085 323.4375 -19.125 323.4375 C-23.76570634 321.66961187 -25.28264036 318.84571072 -27.328125 314.5703125 C-30.62762008 305.73931095 -30.27287598 294.28970883 -27.125 285.4375 C-25.5 282.875 -25.5 282.875 -24.125 281.4375 C-25.383125 281.39625 -26.64125 281.355 -27.9375 281.3125 C-30.16015625 281.03125 -30.16015625 281.03125 -32.125 280.4375 C-33.875 277.8125 -33.875 277.8125 -35.125 274.4375 C-35.805625 273.40625 -36.48625 272.375 -37.1875 271.3125 C-43.36946815 260.31858983 -41.5755356 244.84009806 -41.75 232.625 C-41.78453558 230.45816846 -41.81920471 228.29133904 -41.85400391 226.12451172 C-41.92083149 221.84104401 -41.98071419 217.55754215 -42.03710938 213.27392578 C-42.09549953 209.04909095 -42.18485818 204.82664948 -42.30383301 200.60313416 C-42.70628709 186.01494746 -41.87067999 171.97806117 -39.75 157.5625 C-39.63903992 156.80414856 -39.52807983 156.04579712 -39.41375732 155.26446533 C-38.04065649 146.09817081 -38.04065649 146.09817081 -37.125 142.4375 C-34.82870006 141.28935003 -33.04801914 141.12980191 -30.5 140.875 C-29.68273438 140.79121094 -28.86546875 140.70742187 -28.0234375 140.62109375 C-27.39695312 140.56050781 -26.77046875 140.49992188 -26.125 140.4375 C-26.57875 139.73625 -27.0325 139.035 -27.5 138.3125 C-30.8011513 132.47200154 -31.51378975 127.26314415 -31.5 120.6875 C-31.49838867 119.8927124 -31.49677734 119.0979248 -31.49511719 118.27905273 C-31.36851659 112.19787985 -30.64575617 106.57736935 -27.125 101.4375 C-24.01739197 98.59117022 -22.05311407 98.08507444 -17.875 98.25 C-16.53695312 98.29060547 -16.53695312 98.29060547 -15.171875 98.33203125 C-14.49640625 98.36683594 -13.8209375 98.40164062 -13.125 98.4375 C-13.13388245 97.37118851 -13.14276489 96.30487701 -13.1519165 95.20625305 C-13.23300708 85.15674357 -13.29296771 75.10730047 -13.33224869 65.05753803 C-13.35312241 59.89084041 -13.38143634 54.72440693 -13.42675781 49.55786133 C-13.47022292 44.57172741 -13.49413873 39.58584755 -13.50450897 34.5995388 C-13.51189913 32.6973184 -13.5263304 30.79511188 -13.54792023 28.89299965 C-13.57696313 26.22824699 -13.58095565 23.5645437 -13.57910156 20.8996582 C-13.59348267 20.11347107 -13.60786377 19.32728394 -13.62268066 18.51727295 C-13.58479804 13.48460794 -12.67445789 10.99261312 -9.125 7.4375 C-7.825625 6.1071875 -7.825625 6.1071875 -6.5 4.75 C-5.71625 3.986875 -4.9325 3.22375 -4.125 2.4375 C-2.125 0.4375 -2.125 0.4375 0 0 Z " fill="#000000" transform="translate(55.125,42.5625)"/>
<path d="M0 0 C1.16793594 -0.00615326 2.33587189 -0.01230652 3.53919983 -0.01864624 C4.79139816 -0.00427521 6.0435965 0.01009583 7.33374023 0.02490234 C8.62674545 0.02581879 9.91975067 0.02673523 11.25193787 0.02767944 C13.98312007 0.03080041 16.71377471 0.04731154 19.44482422 0.07421875 C22.94083841 0.10823182 26.43627474 0.11584595 29.93243504 0.11432838 C33.27461381 0.11500368 36.61660406 0.13268323 39.95874023 0.14990234 C41.2129628 0.15212799 42.46718536 0.15435364 43.75941467 0.15664673 C45.50659035 0.17578629 45.50659035 0.17578629 47.2890625 0.1953125 C48.31322769 0.2029361 49.33739288 0.21055969 50.39259338 0.21841431 C53.14242987 0.49206918 54.77754305 0.98257966 57.07983398 2.48583984 C58.31030273 4.69287109 58.31030273 4.69287109 59.26733398 7.29833984 C59.59088867 8.15041016 59.91444336 9.00248047 60.24780273 9.88037109 C63.43089264 19.84807516 62.50490121 30.02962353 58.13061523 39.55224609 C56.80493404 41.72678243 55.73814293 43.25249526 53.28990173 44.12030029 C50.71509633 44.54616652 48.2669955 44.6282694 45.65625 44.64697266 C44.57154922 44.6565802 43.48684845 44.66618774 42.36927795 44.67608643 C41.20255051 44.6803363 40.03582306 44.68458618 38.83374023 44.68896484 C37.63047592 44.69466492 36.42721161 44.70036499 35.18748474 44.70623779 C32.64306517 44.71568146 30.0986334 44.72221926 27.55419922 44.72607422 C23.66083531 44.73579366 19.76799621 44.76682958 15.87475586 44.79833984 C13.40275379 44.8048687 10.93074794 44.81011963 8.45874023 44.81396484 C7.29403702 44.82631165 6.1293338 44.83865845 4.92933655 44.85137939 C3.84148361 44.8483783 2.75363068 44.8453772 1.6328125 44.84228516 C0.20196068 44.8477536 0.20196068 44.8477536 -1.25779724 44.85333252 C-4.45304214 44.41228577 -6.3163622 43.36070103 -8.92016602 41.48583984 C-10.60766602 39.11083984 -10.60766602 39.11083984 -11.92016602 36.48583984 C-12.27079102 35.78716797 -12.62141602 35.08849609 -12.98266602 34.36865234 C-14.25676552 30.45079637 -14.26182825 26.83123133 -14.23266602 22.73583984 C-14.22775146 21.9332373 -14.22283691 21.13063477 -14.21777344 20.30371094 C-13.99640783 9.12645036 -13.99640783 9.12645036 -10.92016602 4.48583984 C-7.24976658 1.02213712 -5.03325599 -0.01399562 0 0 Z " fill="#575757" transform="translate(403.920166015625,320.51416015625)"/>
<path d="M0 0 C1.22111481 0.00007553 2.44222961 0.00015106 3.7003479 0.00022888 C5.03769979 0.00533587 6.37505127 0.01055187 7.71240234 0.01586914 C9.07717843 0.01773399 10.44195518 0.01915758 11.80673218 0.02015686 C15.40049077 0.02397676 18.99420902 0.03380256 22.58795166 0.04486084 C26.25442967 0.05508628 29.92091419 0.05965691 33.58740234 0.06469727 C40.78273325 0.07542529 47.97803089 0.0924954 55.17333984 0.11352539 C55.66833984 1.59852539 55.66833984 1.59852539 56.17333984 3.11352539 C56.83333984 3.11352539 57.49333984 3.11352539 58.17333984 3.11352539 C62.59134076 12.90996221 64.19030801 23.74459955 60.86083984 34.23852539 C59.68272898 37.21422325 58.46401208 39.82285316 56.17333984 42.11352539 C53.0416492 43.15742227 50.78428299 43.26519612 47.49609375 43.30639648 C45.74880478 43.33049088 45.74880478 43.33049088 43.96621704 43.35507202 C38.64885996 43.39950629 33.33164963 43.44100776 28.01416016 43.46362305 C25.20686303 43.47696904 22.40029167 43.50483664 19.59326172 43.5456543 C15.54951721 43.60444763 11.50655189 43.62227999 7.46240234 43.63696289 C5.57939926 43.67096695 5.57939926 43.67096695 3.65835571 43.70565796 C-6.02447158 43.68209472 -6.02447158 43.68209472 -9.08569336 40.70361328 C-14.3462392 32.87734335 -14.78121427 24.36767632 -13.82666016 15.11352539 C-12.78103525 10.98081743 -11.44390706 7.05556471 -9.82666016 3.11352539 C-9.16666016 3.11352539 -8.50666016 3.11352539 -7.82666016 3.11352539 C-7.82666016 2.45352539 -7.82666016 1.79352539 -7.82666016 1.11352539 C-5.12376708 -0.23792115 -3.02596209 -0.00622626 0 0 Z " fill="#575757" transform="translate(404.82666015625,141.886474609375)"/>
<path d="M0 0 C1.43088353 -0.02715793 2.86191733 -0.04646741 4.29296875 -0.0625 C5.08985107 -0.07410156 5.8867334 -0.08570313 6.70776367 -0.09765625 C10.2225092 0.05208262 12.18196005 0.90285399 15 3 C20.80216019 11.25692027 20.89869709 21.43294179 19.25 31.0625 C18.23174419 35.71635928 16.75722065 39.1074532 14 43 C11.04969362 44.88543996 8.78353064 45.25060965 5.3125 45.1875 C4.52488281 45.18105469 3.73726563 45.17460937 2.92578125 45.16796875 C1 45 1 45 0 44 C-0.0927833 42.61839885 -0.11747043 41.23211962 -0.11352539 39.84741211 C-0.11341209 38.52615578 -0.11341209 38.52615578 -0.11329651 37.1782074 C-0.10555458 35.74227989 -0.10555458 35.74227989 -0.09765625 34.27734375 C-0.0962413 33.30213272 -0.09482635 32.32692169 -0.09336853 31.32215881 C-0.08775133 28.19390857 -0.07519593 25.06572877 -0.0625 21.9375 C-0.05748722 19.82226666 -0.05292393 17.70703219 -0.04882812 15.59179688 C-0.03777631 10.39450704 -0.02102146 5.19725855 0 0 Z " fill="#565656" transform="translate(82,321)"/>
<path d="M0 0 C0 14.19 0 28.38 0 43 C-3.96 43 -7.92 43 -12 43 C-17.95697587 37.04302413 -18.33965223 30.06957233 -18.4375 22.0625 C-18.40336959 15.2684588 -17.96070278 8.78213709 -14 3 C-10 0 -10 0 0 0 Z " fill="#575757" transform="translate(42,141)"/>
<path d="M0 0 C9 0 9 0 11.875 2 C16.37898948 8.35857338 17.51361662 14.33628351 17.375 21.9375 C17.36702393 22.72584229 17.35904785 23.51418457 17.35083008 24.32641602 C17.1987069 30.5339405 16.80239248 36.71896198 12.58203125 41.66015625 C8.65785055 44.98359818 5.34866551 44 0 44 C0 29.48 0 14.96 0 0 Z " fill="#555555" transform="translate(82,141)"/>
<path d="M0 0 C0 14.85 0 29.7 0 45 C-7.4375 45 -7.4375 45 -11 42 C-16.97634262 32.73466346 -17.2668668 21.63763372 -15.25 11 C-14.26372409 7.24111628 -12.87220263 4.70807676 -10 2 C-6.24971547 -0.01938398 -4.46474418 0 0 0 Z " fill="#575757" transform="translate(42,321)"/>
</svg>
