<?xml version="1.0" encoding="UTF-8"?>
<svg version="1.1" xmlns="http://www.w3.org/2000/svg" width="500" height="500">
<path d="M0 0 C3.08468863 0.80490367 6.03843161 1.82377426 9 3 C9 3.66 9 4.32 9 5 C10.65 5.33 12.3 5.66 14 6 C14 6.66 14 7.32 14 8 C14.639375 8.2475 15.27875 8.495 15.9375 8.75 C18 10 18 10 18.5625 12.0625 C18.706875 12.701875 18.85125 13.34125 19 14 C19.99 14.33 20.98 14.66 22 15 C22 32.16 22 49.32 22 67 C23.98 67 25.96 67 28 67 C32.64070634 68.76788813 34.15764036 71.59178928 36.203125 75.8671875 C39.50262008 84.69818905 39.14787598 96.14779117 36 105 C34.375 107.5625 34.375 107.5625 33 109 C34.258125 109.04125 35.51625 109.0825 36.8125 109.125 C39.03515625 109.40625 39.03515625 109.40625 41 110 C42.75 112.625 42.75 112.625 44 116 C44.680625 117.03125 45.36125 118.0625 46.0625 119.125 C52.24446815 130.11891017 50.4505356 145.59740194 50.625 157.8125 C50.65953558 159.97933154 50.69420471 162.14616096 50.72900391 164.31298828 C50.79583149 168.59645599 50.85571419 172.87995785 50.91210938 177.16357422 C50.97049953 181.38840905 51.05985818 185.61085052 51.17883301 189.83436584 C51.58128709 204.42255254 50.74567999 218.45943883 48.625 232.875 C48.51403992 233.63335144 48.40307983 234.39170288 48.28875732 235.17303467 C46.91565649 244.33932919 46.91565649 244.33932919 46 248 C43.70370006 249.14814997 41.92301914 249.30769809 39.375 249.5625 C38.55773437 249.64628906 37.74046875 249.73007812 36.8984375 249.81640625 C36.27195312 249.87699219 35.64546875 249.93757812 35 250 C35.45375 250.70125 35.9075 251.4025 36.375 252.125 C39.6761513 257.96549846 40.38878975 263.17435585 40.375 269.75 C40.37338867 270.5447876 40.37177734 271.3395752 40.37011719 272.15844727 C40.24351659 278.23962015 39.52075617 283.86013065 36 289 C32.89239197 291.84632978 30.92811407 292.35242556 26.75 292.1875 C25.85796875 292.16042969 24.9659375 292.13335937 24.046875 292.10546875 C23.03367187 292.05326172 23.03367187 292.05326172 22 292 C22.00888245 293.06631149 22.01776489 294.13262299 22.0269165 295.23124695 C22.10800708 305.28075643 22.16796771 315.33019953 22.20724869 325.37996197 C22.22812241 330.54665959 22.25643634 335.71309307 22.30175781 340.87963867 C22.34522292 345.86577259 22.36913873 350.85165245 22.37950897 355.8379612 C22.38689913 357.7401816 22.4013304 359.64238812 22.42292023 361.54450035 C22.45196313 364.20925301 22.45595565 366.8729563 22.45410156 369.5378418 C22.46848267 370.32402893 22.48286377 371.11021606 22.49768066 371.92022705 C22.45979804 376.95289206 21.54945789 379.44488688 18 383 C16.700625 384.3303125 16.700625 384.3303125 15.375 385.6875 C14.59125 386.450625 13.8075 387.21375 13 388 C12.34 388.66 11.68 389.32 11 390 C7.40453656 390.74024247 5.21965435 389.7484527 2.1875 387.9375 C-9.22631418 380.32105746 -9.22631418 380.32105746 -11 375 C-11.66 375 -12.32 375 -13 375 C-13 374.34 -13 373.68 -13 373 C-14.32 372.34 -15.64 371.68 -17 371 C-17 370.34 -17 369.68 -17 369 C-17.66 369 -18.32 369 -19 369 C-19 343.59 -19 318.18 -19 292 C-21.64 292 -24.28 292 -27 292 C-31.66552285 288.68229486 -33.51014616 284.39033714 -35 279 C-35.39270031 276.00586865 -35.4296916 273.07890286 -35.375 270.0625 C-35.36774902 269.27488281 -35.36049805 268.48726563 -35.35302734 267.67578125 C-35.20016895 261.25307019 -34.78017083 254.78017083 -30 250 C-37.45062616 249.08953273 -44.78697518 248.86000861 -52.28799438 248.87974548 C-53.48893592 248.87889106 -54.68987746 248.87803663 -55.92721117 248.87715632 C-59.23389966 248.87580149 -62.54052803 248.87889808 -65.84720922 248.88393438 C-69.42307226 248.88827488 -72.99893364 248.88678991 -76.57479858 248.8860321 C-82.76137349 248.88550914 -88.9479378 248.8886321 -95.13451004 248.89426994 C-104.0791249 248.90241586 -113.02373467 248.90500333 -121.96835284 248.90625793 C-136.48232276 248.9084436 -150.99628704 248.91509052 -165.51025391 248.92456055 C-179.60465466 248.93374723 -193.69905388 248.94082192 -207.79345703 248.94506836 C-208.66303251 248.94533108 -209.53260798 248.94559381 -210.42853422 248.94586449 C-214.79117668 248.94716958 -219.15381914 248.94843328 -223.51646161 248.94967639 C-259.67764505 248.96003389 -295.83882209 248.97763899 -332 249 C-331.72285156 249.60328125 -331.44570313 250.2065625 -331.16015625 250.828125 C-330.79792969 251.62734375 -330.43570313 252.4265625 -330.0625 253.25 C-329.70285156 254.03890625 -329.34320313 254.8278125 -328.97265625 255.640625 C-324.57679233 266.30368447 -326.76428173 277.67543672 -331 288 C-331.66 288 -332.32 288 -333 288 C-333 288.66 -333 289.32 -333 290 C-335.70289308 291.35144654 -337.80069806 291.11975165 -340.82666016 291.11352539 C-342.04777496 291.11344986 -343.26888977 291.11337433 -344.52700806 291.11329651 C-345.86435995 291.10818952 -347.20171143 291.10297352 -348.5390625 291.09765625 C-349.90383859 291.0957914 -351.26861534 291.09436781 -352.63339233 291.09336853 C-356.22715093 291.08954863 -359.82086917 291.07972283 -363.41461182 291.06866455 C-367.08108982 291.05843911 -370.74757435 291.05386848 -374.4140625 291.04882812 C-381.60939341 291.0381001 -388.80469105 291.02102999 -396 291 C-396.495 289.515 -396.495 289.515 -397 288 C-397.66 288 -398.32 288 -399 288 C-403.41366913 278.21316845 -405.0656746 267.33604097 -401.625 256.875 C-400.58009729 254.16247478 -399.32249181 251.58748397 -398 249 C-400.31 249 -402.62 249 -405 249 C-409.72714833 196.92581285 -409.72714833 196.92581285 -410 174 C-410.02058335 172.57844926 -410.0412589 171.15689984 -410.06201172 169.73535156 C-410.68859629 123.56522474 -410.68859629 123.56522474 -403.73046875 112.65234375 C-401.56925251 110.58869935 -399.92688383 110.32300076 -397 110 C-397.27714844 109.33613281 -397.55429687 108.67226562 -397.83984375 107.98828125 C-398.20207031 107.10527344 -398.56429687 106.22226563 -398.9375 105.3125 C-399.29714844 104.44238281 -399.65679687 103.57226562 -400.02734375 102.67578125 C-403.59035116 92.87393354 -402.37449151 82.34611526 -398.05078125 72.93359375 C-396.72510006 70.75905741 -395.65830894 69.23334458 -393.21006775 68.36553955 C-390.63526235 67.93967333 -388.18716152 67.85757044 -385.57641602 67.83886719 C-383.94936485 67.82445587 -383.94936485 67.82445587 -382.28944397 67.80975342 C-381.12271652 67.80550354 -379.95598907 67.80125366 -378.75390625 67.796875 C-376.94900978 67.78832489 -376.94900978 67.78832489 -375.10765076 67.77960205 C-372.56323118 67.77015838 -370.01879941 67.76362058 -367.47436523 67.75976562 C-363.58100132 67.75004619 -359.68816223 67.71901026 -355.79492188 67.6875 C-353.3229198 67.68097115 -350.85091395 67.67572021 -348.37890625 67.671875 C-347.21420303 67.6595282 -346.04949982 67.6471814 -344.84950256 67.63446045 C-343.76164963 67.63746155 -342.67379669 67.64046265 -341.55297852 67.64355469 C-340.12212669 67.63808624 -340.12212669 67.63808624 -338.66236877 67.63250732 C-335.46712387 68.07355408 -333.60380382 69.12513881 -331 71 C-329.3125 73.375 -329.3125 73.375 -328 76 C-327.649375 76.69867188 -327.29875 77.39734375 -326.9375 78.1171875 C-325.66325304 82.03549691 -325.65960068 85.654295 -325.6875 89.75 C-325.69023926 90.55187744 -325.69297852 91.35375488 -325.69580078 92.17993164 C-325.82250484 99.34453629 -326.94087531 104.91131296 -331 111 C-329.92691338 110.83826325 -328.85382675 110.67652651 -327.74822235 110.50988865 C-322.17937306 109.81923248 -316.63305018 109.84674229 -311.02844238 109.84178162 C-309.24184401 109.83437465 -309.24184401 109.83437465 -307.41915274 109.82681805 C-304.13076925 109.81415855 -300.84240846 109.80584131 -297.55400801 109.79939139 C-294.00127437 109.79135303 -290.44856187 109.77766719 -286.89584351 109.76467896 C-280.74634974 109.74296475 -274.59685379 109.72480189 -268.44734192 109.70907402 C-259.55625938 109.6863292 -250.66520028 109.65819286 -241.77413768 109.62875474 C-227.34780788 109.58113526 -212.92146848 109.53785585 -198.49511719 109.49731445 C-184.48404188 109.45793077 -170.47297509 109.41649768 -156.46191406 109.37231445 C-155.59778713 109.36959018 -154.7336602 109.36686591 -153.84334761 109.36405908 C-149.50813191 109.35037913 -145.17291635 109.33665895 -140.83770084 109.32291877 C-104.89181829 109.20904269 -68.94591752 109.1022138 -33 109 C-33.28004883 108.46310547 -33.56009766 107.92621094 -33.84863281 107.37304688 C-34.21311523 106.66212891 -34.57759766 105.95121094 -34.953125 105.21875 C-35.31567383 104.51685547 -35.67822266 103.81496094 -36.05175781 103.09179688 C-39.7570114 94.91810667 -38.42954261 84.3942062 -36 76 C-34.6345025 72.71918078 -33.24077721 69.79726536 -30.1640625 67.8203125 C-27.70331483 66.88753811 -25.87154104 66.79789585 -23.25 66.875 C-22.45078125 66.89304687 -21.6515625 66.91109375 -20.828125 66.9296875 C-20.22484375 66.95289063 -19.6215625 66.97609375 -19 67 C-19.00999275 66.05825676 -19.00999275 66.05825676 -19.02018738 65.0974884 C-19.08658382 58.56008019 -19.13181863 52.02276786 -19.16479492 45.48510742 C-19.17987654 43.04561472 -19.20034469 40.6061491 -19.22631836 38.16674805 C-19.26272812 34.65927441 -19.27973289 31.15215946 -19.29296875 27.64453125 C-19.30845261 26.55477493 -19.32393646 25.46501862 -19.33988953 24.34223938 C-19.34193072 15.14776766 -19.34193072 15.14776766 -16 11 C-14.96773137 8.6811907 -14.01190447 6.34201317 -13.0625 3.98828125 C-10.26047902 -1.25520654 -5.1408747 -0.55511793 0 0 Z " fill="#000000" transform="translate(436,67)"/>
<path d="M0 0 C1.08470078 -0.00960754 2.16940155 -0.01921509 3.28697205 -0.02911377 C4.45369949 -0.03336365 5.62042694 -0.03761353 6.82250977 -0.04199219 C8.02577408 -0.04769226 9.22903839 -0.05339233 10.46876526 -0.05926514 C13.01318483 -0.06870881 15.5576166 -0.0752466 18.10205078 -0.07910156 C21.99541469 -0.088821 25.88825379 -0.11985693 29.78149414 -0.15136719 C32.25349621 -0.15789604 34.72550206 -0.16314697 37.19750977 -0.16699219 C38.94456459 -0.18551239 38.94456459 -0.18551239 40.72691345 -0.20440674 C41.81476639 -0.20140564 42.90261932 -0.19840454 44.0234375 -0.1953125 C45.45428932 -0.20078094 45.45428932 -0.20078094 46.91404724 -0.20635986 C50.10929214 0.23468689 51.9726122 1.28627162 54.57641602 3.16113281 C56.26391602 5.53613281 56.26391602 5.53613281 57.57641602 8.16113281 C57.92704102 8.85980469 58.27766602 9.55847656 58.63891602 10.27832031 C59.91316298 14.19662972 59.91681534 17.81542781 59.88891602 21.91113281 C59.88617676 22.71301025 59.8834375 23.5148877 59.88061523 24.34106445 C59.75391118 31.5056691 58.63554071 37.07244577 54.57641602 43.16113281 C51.42530897 44.21150183 49.19177835 44.29414544 45.88330078 44.30639648 C44.13117027 44.31596626 44.13117027 44.31596626 42.34364319 44.32572937 C40.44986183 44.32739861 40.44986183 44.32739861 38.51782227 44.32910156 C37.22198715 44.33242996 35.92615204 44.33575836 34.59104919 44.33918762 C31.84812589 44.34517343 29.10523407 44.34702807 26.36230469 44.34643555 C22.85059955 44.34633391 19.33909654 44.35998982 15.82743931 44.37720776 C12.47423049 44.39101082 9.12105914 44.3904167 5.76782227 44.39160156 C4.50732559 44.39878708 3.24682892 44.4059726 1.94813538 44.41337585 C0.77689621 44.41029922 -0.39434296 44.4072226 -1.60107422 44.40405273 C-2.63127182 44.40547775 -3.66146942 44.40690277 -4.72288513 44.40837097 C-7.49142051 44.15492265 -9.11063633 43.67711761 -11.42358398 42.16113281 C-12.65405273 39.95410156 -12.65405273 39.95410156 -13.61108398 37.34863281 C-13.93463867 36.4965625 -14.25819336 35.64449219 -14.59155273 34.76660156 C-17.77464264 24.7988975 -16.84865121 14.61734912 -12.47436523 5.09472656 C-11.14868404 2.92019022 -10.08189293 1.39447739 -7.63365173 0.52667236 C-5.05884633 0.10080614 -2.6107455 0.01870326 0 0 Z " fill="#575757" transform="translate(50.423583984375,134.8388671875)"/>
<path d="M0 0 C1.78700317 -0.00472824 1.78700317 -0.00472824 3.61010742 -0.009552 C4.89763916 -0.00752777 6.1851709 -0.00550354 7.51171875 -0.00341797 C8.84545916 -0.00409165 10.17919946 -0.00506222 11.51293945 -0.00631714 C14.30714081 -0.00779107 17.10131018 -0.00564933 19.89550781 -0.00097656 C23.47675625 0.00472055 27.05792973 0.00143992 30.63917542 -0.00454903 C33.39295008 -0.00816285 36.14670698 -0.00701227 38.90048218 -0.00442123 C40.86309864 -0.0034299 42.82571579 -0.00646642 44.78833008 -0.009552 C45.97966553 -0.00639984 47.17100098 -0.00324768 48.3984375 0 C49.97371216 0.00119339 49.97371216 0.00119339 51.58081055 0.00241089 C54.19921875 0.12939453 54.19921875 0.12939453 57.19921875 1.12939453 C58.33203125 3.05517578 58.33203125 3.05517578 59.32421875 5.44189453 C59.82308594 6.61171875 59.82308594 6.61171875 60.33203125 7.80517578 C64.38035446 18.65541141 62.49093152 29.66834465 58.19921875 40.12939453 C57.53921875 40.12939453 56.87921875 40.12939453 56.19921875 40.12939453 C56.19921875 40.78939453 56.19921875 41.44939453 56.19921875 42.12939453 C53.49632567 43.48084107 51.39852069 43.24914618 48.37255859 43.24291992 C47.15144379 43.24284439 45.93032898 43.24276886 44.67221069 43.24269104 C43.3348588 43.23758405 41.99750732 43.23236805 40.66015625 43.22705078 C39.29538016 43.22518593 37.93060341 43.22376234 36.56582642 43.22276306 C32.97206782 43.21894316 29.37834958 43.20911736 25.78460693 43.19805908 C22.11812893 43.18783364 18.4516444 43.18326301 14.78515625 43.17822266 C7.58982534 43.16749463 0.3945277 43.15042452 -6.80078125 43.12939453 C-7.29578125 41.64439453 -7.29578125 41.64439453 -7.80078125 40.12939453 C-8.46078125 40.12939453 -9.12078125 40.12939453 -9.80078125 40.12939453 C-14.21445038 30.34256298 -15.86645585 19.4654355 -12.42578125 9.00439453 C-11.92229759 7.69737129 -11.38197862 6.40376307 -10.80078125 5.12939453 C-10.49914063 4.41009766 -10.1975 3.69080078 -9.88671875 2.94970703 C-7.7222411 -0.67851809 -3.79107059 0.00287202 0 0 Z " fill="#575757" transform="translate(46.80078125,314.87060546875)"/>
<path d="M0 0 C1.18142578 0.00966797 1.18142578 0.00966797 2.38671875 0.01953125 C4.3125 0.1875 4.3125 0.1875 5.3125 1.1875 C5.4052833 2.56910115 5.42997043 3.95538038 5.42602539 5.34008789 C5.42594986 6.22092545 5.42587433 7.101763 5.42579651 8.0092926 C5.42063522 8.96657761 5.41547394 9.92386261 5.41015625 10.91015625 C5.4087413 11.88536728 5.40732635 12.86057831 5.40586853 13.86534119 C5.40025133 16.99359143 5.38769593 20.12177123 5.375 23.25 C5.36998722 25.36523334 5.36542393 27.48046781 5.36132812 29.59570312 C5.35027631 34.79299296 5.33352146 39.99024145 5.3125 45.1875 C3.88161647 45.21465793 2.45058267 45.23396741 1.01953125 45.25 C0.22264893 45.26160156 -0.5742334 45.27320313 -1.39526367 45.28515625 C-4.9100092 45.13541738 -6.86946005 44.28464601 -9.6875 42.1875 C-15.48966019 33.93057973 -15.58619709 23.75455821 -13.9375 14.125 C-12.91924419 9.47114072 -11.44472065 6.0800468 -8.6875 2.1875 C-5.73719362 0.30206004 -3.47103064 -0.06310965 0 0 Z " fill="#565656" transform="translate(412.6875,133.8125)"/>
<path d="M0 0 C3.96 0 7.92 0 12 0 C17.95697587 5.95697587 18.33965223 12.93042767 18.4375 20.9375 C18.40336959 27.7315412 17.96070278 34.21786291 14 40 C10 43 10 43 0 43 C0 28.81 0 14.62 0 0 Z " fill="#585858" transform="translate(458,316)"/>
<path d="M0 0 C0 14.52 0 29.04 0 44 C-9 44 -9 44 -11.875 42 C-16.37828238 35.64242488 -17.51521116 29.66307964 -17.375 22.0625 C-17.36557373 21.27343262 -17.35614746 20.48436523 -17.34643555 19.67138672 C-17.16445101 12.65446907 -16.46000417 6.96647561 -11.875 1.4375 C-9 0 -9 0 0 0 Z " fill="#565656" transform="translate(418,315)"/>
<path d="M0 0 C7.4375 0 7.4375 0 11 3 C16.97634262 12.26533654 17.2668668 23.36236628 15.25 34 C14.26372409 37.75888372 12.87220263 40.29192324 10 43 C6.24971547 45.01938398 4.46474418 45 0 45 C0 30.15 0 15.3 0 0 Z " fill="#575757" transform="translate(458,134)"/>
</svg>
