<?xml version="1.0" encoding="UTF-8"?>
<svg version="1.1" xmlns="http://www.w3.org/2000/svg" width="500" height="500">
<path d="M0 0 C14.58818669 -0.40245409 28.62507298 0.43315302 43.04063416 2.55383301 C44.17816132 2.72027313 44.17816132 2.72027313 45.33866882 2.89007568 C54.50496335 4.26317652 54.50496335 4.26317652 58.16563416 5.17883301 C59.31378413 7.47513295 59.47333224 9.25581387 59.72813416 11.80383301 C59.81192322 12.62109863 59.89571228 13.43836426 59.98204041 14.28039551 C60.04262634 14.90687988 60.10321228 15.53336426 60.16563416 16.17883301 C60.86688416 15.72508301 61.56813416 15.27133301 62.29063416 14.80383301 C68.13113261 11.5026817 73.33999001 10.79004325 79.91563416 10.80383301 C80.71042175 10.80544434 81.50520935 10.80705566 82.32408142 10.80871582 C88.40525431 10.93531642 94.02576481 11.65807684 99.16563416 15.17883301 C102.01196393 18.28644104 102.51805971 20.25071893 102.35313416 24.42883301 C102.32606384 25.32086426 102.29899353 26.21289551 102.27110291 27.13195801 C102.21889587 28.14516113 102.21889587 28.14516113 102.16563416 29.17883301 C103.23194565 29.16995056 104.29825714 29.16106812 105.3968811 29.1519165 C115.44639059 29.07082593 125.49583369 29.01086529 135.54559612 28.97158432 C140.71229375 28.9507106 145.87872723 28.92239667 151.04527283 28.8770752 C156.03140674 28.83361009 161.01728661 28.80969428 166.00359535 28.79932404 C167.90581575 28.79193388 169.80802227 28.77750261 171.71013451 28.75591278 C174.37488717 28.72686987 177.03859045 28.72287736 179.70347595 28.72473145 C180.48966309 28.71035034 181.27585022 28.69596924 182.08586121 28.68115234 C187.11852621 28.71903497 189.61052103 29.62937512 193.16563416 33.17883301 C194.05250916 34.04508301 194.93938416 34.91133301 195.85313416 35.80383301 C196.61625916 36.58758301 197.37938416 37.37133301 198.16563416 38.17883301 C198.82563416 38.83883301 199.48563416 39.49883301 200.16563416 40.17883301 C200.90587663 43.77429645 199.91408685 45.95917866 198.10313416 48.99133301 C190.48669161 60.40514719 190.48669161 60.40514719 185.16563416 62.17883301 C185.16563416 62.83883301 185.16563416 63.49883301 185.16563416 64.17883301 C184.50563416 64.17883301 183.84563416 64.17883301 183.16563416 64.17883301 C182.50563416 65.49883301 181.84563416 66.81883301 181.16563416 68.17883301 C180.50563416 68.17883301 179.84563416 68.17883301 179.16563416 68.17883301 C179.16563416 68.83883301 179.16563416 69.49883301 179.16563416 70.17883301 C153.75563416 70.17883301 128.34563416 70.17883301 102.16563416 70.17883301 C102.16563416 72.81883301 102.16563416 75.45883301 102.16563416 78.17883301 C98.84792902 82.84435586 94.55597129 84.68897917 89.16563416 86.17883301 C86.1715028 86.57153332 83.24453702 86.60852461 80.22813416 86.55383301 C79.44051697 86.54658203 78.65289978 86.53933105 77.84141541 86.53186035 C71.41870435 86.37900196 64.94580498 85.95900383 60.16563416 81.17883301 C59.25516688 88.62945917 59.02564277 95.96580819 59.04537964 103.46682739 C59.04452521 104.66776893 59.04367079 105.86871047 59.04279047 107.10604417 C59.04143565 110.41273267 59.04453224 113.71936104 59.04956853 117.02604222 C59.05390904 120.60190527 59.05242407 124.17776665 59.05166626 127.75363159 C59.0511433 133.9402065 59.05426626 140.12677081 59.0599041 146.31334305 C59.06805002 155.25795791 59.07063748 164.20256768 59.07189209 173.14718585 C59.07407775 187.66115577 59.08072467 202.17512005 59.0901947 216.68908691 C59.09938138 230.78348767 59.10645607 244.87788689 59.11070251 258.97229004 C59.11096524 259.84186551 59.11122796 260.71144099 59.11149865 261.60736723 C59.11280374 265.97000968 59.11406743 270.33265215 59.11531055 274.69529462 C59.12566805 310.85647806 59.14327315 347.01765509 59.16563416 383.17883301 C59.76891541 382.90168457 60.37219666 382.62453613 60.99375916 382.33898926 C61.79297791 381.9767627 62.59219666 381.61453613 63.41563416 381.24133301 C64.20454041 380.88168457 64.99344666 380.52203613 65.80625916 380.15148926 C76.46931863 375.75562534 87.84107088 377.94311474 98.16563416 382.17883301 C98.16563416 382.83883301 98.16563416 383.49883301 98.16563416 384.17883301 C98.82563416 384.17883301 99.48563416 384.17883301 100.16563416 384.17883301 C101.5170807 386.88172609 101.28538581 388.97953107 101.27915955 392.00549316 C101.27908401 393.22660797 101.27900848 394.44772278 101.27893066 395.70584106 C101.27382367 397.04319296 101.26860767 398.38054444 101.26329041 399.71789551 C101.26142555 401.08267159 101.26000197 402.44744835 101.25900269 403.81222534 C101.25518278 407.40598394 101.24535699 410.99970218 101.23429871 414.59344482 C101.22407327 418.25992283 101.21950263 421.92640735 101.21446228 425.59289551 C101.20373425 432.78822641 101.18666415 439.98352406 101.16563416 447.17883301 C100.17563416 447.50883301 99.18563416 447.83883301 98.16563416 448.17883301 C98.16563416 448.83883301 98.16563416 449.49883301 98.16563416 450.17883301 C88.3788026 454.59250214 77.50167513 456.24450761 67.04063416 452.80383301 C64.32810893 451.7589303 61.75311813 450.50132482 59.16563416 449.17883301 C59.16563416 451.48883301 59.16563416 453.79883301 59.16563416 456.17883301 C7.09144701 460.90598134 7.09144701 460.90598134 -15.83436584 461.17883301 C-17.25591659 461.19941636 -18.677466 461.22009191 -20.09901428 461.24084473 C-66.26914111 461.86742929 -66.26914111 461.86742929 -77.18202209 454.90930176 C-79.2456665 452.74808552 -79.51136508 451.10571684 -79.83436584 448.17883301 C-80.83016663 448.59455566 -80.83016663 448.59455566 -81.84608459 449.01867676 C-82.72909241 449.38090332 -83.61210022 449.74312988 -84.52186584 450.11633301 C-85.39198303 450.47598145 -86.26210022 450.83562988 -87.15858459 451.20617676 C-96.9604323 454.76918417 -107.48825059 453.55332452 -116.90077209 449.22961426 C-119.07530843 447.90393307 -120.60102127 446.83714195 -121.46882629 444.38890076 C-121.89469252 441.81409536 -121.9767954 439.36599452 -121.99549866 436.75524902 C-122.0051062 435.67054825 -122.01471375 434.58584747 -122.02461243 433.46827698 C-122.0288623 432.30154953 -122.03311218 431.13482208 -122.03749084 429.93273926 C-122.04319092 428.72947495 -122.04889099 427.52621063 -122.05476379 426.28648376 C-122.06420746 423.74206419 -122.07074526 421.19763242 -122.07460022 418.65319824 C-122.08431966 414.75983433 -122.11535558 410.86699523 -122.14686584 406.97375488 C-122.1533947 404.50175281 -122.15864563 402.02974696 -122.16249084 399.55773926 C-122.17483765 398.39303604 -122.18718445 397.22833282 -122.1999054 396.02833557 C-122.1969043 394.94048264 -122.1939032 393.8526297 -122.19081116 392.73181152 C-122.1962796 391.3009597 -122.1962796 391.3009597 -122.20185852 389.84120178 C-121.76081177 386.64595688 -120.70922704 384.78263682 -118.83436584 382.17883301 C-116.45936584 380.49133301 -116.45936584 380.49133301 -113.83436584 379.17883301 C-113.13569397 378.82820801 -112.43702209 378.47758301 -111.71717834 378.11633301 C-107.79886894 376.84208605 -104.18007085 376.83843369 -100.08436584 376.86633301 C-99.2824884 376.86907227 -98.48061096 376.87181152 -97.6544342 376.87463379 C-90.48982955 377.00133785 -84.92305289 378.11970831 -78.83436584 382.17883301 C-78.99610259 381.10574638 -79.15783934 380.03265976 -79.3244772 378.92705536 C-80.01513336 373.35820607 -79.98762355 367.81188318 -79.99258423 362.20727539 C-79.99999119 360.42067702 -79.99999119 360.42067702 -80.0075478 358.59798574 C-80.02020729 355.30960226 -80.02852454 352.02124147 -80.03497446 348.73284101 C-80.04301282 345.18010738 -80.05669865 341.62739487 -80.06968689 338.07467651 C-80.0914011 331.92518275 -80.10956396 325.7756868 -80.12529182 319.62617493 C-80.14803665 310.73509239 -80.17617299 301.84403328 -80.2056111 292.95297068 C-80.25323058 278.52664089 -80.29651 264.10030149 -80.33705139 249.6739502 C-80.37643508 235.66287489 -80.41786816 221.6518081 -80.46205139 207.64074707 C-80.46477566 206.77662014 -80.46749994 205.91249321 -80.47030676 205.02218062 C-80.48398671 200.68696492 -80.49770689 196.35174936 -80.51144707 192.01653385 C-80.62532315 156.07065129 -80.73215205 120.12475053 -80.83436584 84.17883301 C-81.37126038 84.45888184 -81.90815491 84.73893066 -82.46131897 85.02746582 C-83.17223694 85.39194824 -83.88315491 85.75643066 -84.61561584 86.13195801 C-85.31751038 86.49450684 -86.01940491 86.85705566 -86.74256897 87.23059082 C-94.91625917 90.93584441 -105.44015964 89.60837562 -113.83436584 87.17883301 C-117.11518507 85.8133355 -120.03710049 84.41961022 -122.01405334 81.34289551 C-122.94682773 78.88214784 -123.03646999 77.05037405 -122.95936584 74.42883301 C-122.94131897 73.62961426 -122.92327209 72.83039551 -122.90467834 72.00695801 C-122.88147522 71.40367676 -122.85827209 70.80039551 -122.83436584 70.17883301 C-123.46219467 70.18549484 -124.0900235 70.19215668 -124.73687744 70.19902039 C-131.27428565 70.26541683 -137.81159798 70.31065163 -144.34925842 70.34362793 C-146.78875113 70.35870955 -149.22821675 70.3791777 -151.6676178 70.40515137 C-155.17509143 70.44156113 -158.68220639 70.4585659 -162.18983459 70.47180176 C-163.27959091 70.48728561 -164.36934723 70.50276947 -165.49212646 70.51872253 C-174.68659818 70.52076372 -174.68659818 70.52076372 -178.83436584 67.17883301 C-181.15317515 66.14656438 -183.49235268 65.19073748 -185.84608459 64.24133301 C-187.83436584 63.17883301 -187.83436584 63.17883301 -189.83436584 60.17883301 C-190.82796785 53.75267976 -189.19054181 48.1113475 -186.83436584 42.17883301 C-186.17436584 42.17883301 -185.51436584 42.17883301 -184.83436584 42.17883301 C-184.50436584 40.52883301 -184.17436584 38.87883301 -183.83436584 37.17883301 C-183.17436584 37.17883301 -182.51436584 37.17883301 -181.83436584 37.17883301 C-181.46311584 36.21977051 -181.46311584 36.21977051 -181.08436584 35.24133301 C-179.83436584 33.17883301 -179.83436584 33.17883301 -177.77186584 32.61633301 C-177.13249084 32.47195801 -176.49311584 32.32758301 -175.83436584 32.17883301 C-175.50436584 31.18883301 -175.17436584 30.19883301 -174.83436584 29.17883301 C-157.67436584 29.17883301 -140.51436584 29.17883301 -122.83436584 29.17883301 C-122.83436584 27.19883301 -122.83436584 25.21883301 -122.83436584 23.17883301 C-121.06647772 18.53812667 -118.24257657 17.02119265 -113.96717834 14.97570801 C-105.1361768 11.67621292 -93.68657467 12.03095702 -84.83436584 15.17883301 C-82.27186584 16.80383301 -82.27186584 16.80383301 -80.83436584 18.17883301 C-80.79311584 16.92070801 -80.75186584 15.66258301 -80.70936584 14.36633301 C-80.42811584 12.14367676 -80.42811584 12.14367676 -79.83436584 10.17883301 C-77.20936584 8.42883301 -77.20936584 8.42883301 -73.83436584 7.17883301 C-72.80311584 6.49820801 -71.77186584 5.81758301 -70.70936584 5.11633301 C-59.71545567 -1.06563514 -44.23696391 0.72829741 -32.02186584 0.55383301 C-29.8550343 0.51929743 -27.68820489 0.4846283 -25.52137756 0.4498291 C-21.23790986 0.38300151 -16.954408 0.32311882 -12.67079163 0.26672363 C-8.44595679 0.20833348 -4.22351532 0.11897483 0 0 Z " fill="#000000" transform="translate(256.83436584472656,12.8211669921875)"/>
<path d="M0 0 C1.20390381 0.00737183 1.20390381 0.00737183 2.43212891 0.01489258 C13.60938949 0.23625819 13.60938949 0.23625819 18.25 3.3125 C21.71370272 6.98289944 22.74983547 9.19941002 22.73583984 14.23266602 C22.7419931 15.40060196 22.74814636 16.5685379 22.75448608 17.77186584 C22.74011505 19.02406418 22.72574402 20.27626251 22.7109375 21.56640625 C22.70956284 23.50591408 22.70956284 23.50591408 22.7081604 25.48460388 C22.70503944 28.21578609 22.68852831 30.94644072 22.66162109 33.67749023 C22.62760802 37.17350443 22.6199939 40.66894075 22.62151146 44.16510105 C22.62083616 47.50727982 22.60315661 50.84927008 22.5859375 54.19140625 C22.58371185 55.44562881 22.58148621 56.69985138 22.57919312 57.99208069 C22.56643341 59.15686447 22.55367371 60.32164825 22.54052734 61.52172852 C22.52909195 63.0579763 22.52909195 63.0579763 22.51742554 64.6252594 C22.24377066 67.37509588 21.75326019 69.01020907 20.25 71.3125 C18.04296875 72.54296875 18.04296875 72.54296875 15.4375 73.5 C14.58542969 73.82355469 13.73335937 74.14710938 12.85546875 74.48046875 C2.88776469 77.66355865 -7.29378369 76.73756723 -16.81640625 72.36328125 C-18.99094259 71.03760006 -20.51665542 69.97080894 -21.38446045 67.52256775 C-21.81032667 64.94776235 -21.89242956 62.49966152 -21.91113281 59.88891602 C-21.92074036 58.80421524 -21.9303479 57.71951447 -21.94024658 56.60194397 C-21.94449646 55.43521652 -21.94874634 54.26848907 -21.953125 53.06640625 C-21.95882507 51.86314194 -21.96452515 50.65987762 -21.97039795 49.42015076 C-21.97984162 46.87573118 -21.98637942 44.33129941 -21.99023438 41.78686523 C-21.99995381 37.89350132 -22.03098974 34.00066223 -22.0625 30.10742188 C-22.06902885 27.6354198 -22.07427979 25.16341395 -22.078125 22.69140625 C-22.0904718 21.52670303 -22.1028186 20.36199982 -22.11553955 19.16200256 C-22.11253845 18.07414963 -22.10953735 16.98629669 -22.10644531 15.86547852 C-22.11009094 14.9115773 -22.11373657 13.95767609 -22.11749268 12.97486877 C-21.67644592 9.77962387 -20.62486119 7.91630382 -18.75 5.3125 C-16.375 3.625 -16.375 3.625 -13.75 2.3125 C-13.05132812 1.961875 -12.35265625 1.61125 -11.6328125 1.25 C-7.71495653 -0.0240995 -4.09539148 -0.02916223 0 0 Z " fill="#575757" transform="translate(156.75,389.6875)"/>
<path d="M0 0 C0 0.66 0 1.32 0 2 C0.66 2 1.32 2 2 2 C3.35144654 4.70289308 3.11975165 6.80069806 3.11352539 9.82666016 C3.11344986 11.04777496 3.11337433 12.26888977 3.11329651 13.52700806 C3.10818952 14.86435995 3.10297352 16.20171143 3.09765625 17.5390625 C3.0957914 18.90383859 3.09436781 20.26861534 3.09336853 21.63339233 C3.08954863 25.22715093 3.07972283 28.82086917 3.06866455 32.41461182 C3.05843911 36.08108982 3.05386848 39.74757435 3.04882812 43.4140625 C3.0381001 50.60939341 3.02102999 57.80469105 3 65 C2.01 65.33 1.02 65.66 0 66 C0 66.66 0 67.32 0 68 C-9.79643682 72.41800092 -20.63107416 74.01696817 -31.125 70.6875 C-34.10069786 69.50938914 -36.70932777 68.29067223 -39 66 C-40.04389688 62.86830936 -40.15167073 60.61094314 -40.19287109 57.32275391 C-40.20893402 56.15789459 -40.22499695 54.99303528 -40.24154663 53.7928772 C-40.2859809 48.47552012 -40.32748237 43.15830978 -40.35009766 37.84082031 C-40.36344365 35.03352319 -40.39131125 32.22695183 -40.43212891 29.41992188 C-40.49092224 25.37617737 -40.5087546 21.33321205 -40.5234375 17.2890625 C-40.54610687 16.03372711 -40.56877625 14.77839172 -40.59213257 13.48501587 C-40.56856933 3.80218857 -40.56856933 3.80218857 -37.59008789 0.7409668 C-26.06936595 -7.00286091 -12.26488223 -5.03174656 0 0 Z " fill="#575757" transform="translate(355,395)"/>
<path d="M0 0 C0.77943466 0.00222061 1.55886932 0.00444122 2.36192322 0.00672913 C3.68317955 0.00684242 3.68317955 0.00684242 5.03112793 0.00695801 C5.98841293 0.01211929 6.94569794 0.01728058 7.93199158 0.02259827 C9.39480812 0.02472069 9.39480812 0.02472069 10.88717651 0.02688599 C14.01542675 0.03250319 17.14360656 0.04505859 20.27183533 0.05775452 C22.38706867 0.0627673 24.50230313 0.06733059 26.61753845 0.07142639 C31.81482829 0.0824782 37.01207678 0.09923305 42.20933533 0.12025452 C42.23649326 1.55113804 42.25580274 2.98217184 42.27183533 4.41322327 C42.28343689 5.21010559 42.29503845 6.00698792 42.30699158 6.82801819 C42.15725271 10.34276371 41.30648134 12.30221456 39.20933533 15.12025452 C30.95241506 20.9224147 20.77639354 21.0189516 11.14683533 19.37025452 C6.49297605 18.35199871 3.10188212 16.87747516 -0.79066467 14.12025452 C-2.67610463 11.16994814 -3.04127432 8.90378516 -2.97816467 5.43275452 C-2.97171936 4.64513733 -2.96527405 3.85752014 -2.95863342 3.04603577 C-2.73923596 0.53061838 -2.52864834 0.16981481 0 0 Z " fill="#565656" transform="translate(136.79066467285156,81.87974548339844)"/>
<path d="M0 0 C1.84765625 1.265625 1.84765625 1.265625 4.84765625 5.265625 C4.84765625 8.565625 4.84765625 11.865625 4.84765625 15.265625 C-9.34234375 15.265625 -23.53234375 15.265625 -38.15234375 15.265625 C-38.15234375 11.305625 -38.15234375 7.345625 -38.15234375 3.265625 C-29.14625992 -5.74045883 -11.0338399 -4.90392885 0 0 Z " fill="#575757" transform="translate(354.15234375,26.734375)"/>
<path d="M0 0 C14.52 0 29.04 0 44 0 C44 9 44 9 42 11.875 C35.64142662 16.37898948 29.66371649 17.51361662 22.0625 17.375 C21.27415771 17.36702393 20.48581543 17.35904785 19.67358398 17.35083008 C13.4660595 17.1987069 7.28103802 16.80239248 2.33984375 12.58203125 C-0.98359818 8.65785055 0 5.34866551 0 0 Z " fill="#555555" transform="translate(315,82)"/>
<path d="M0 0 C3.77683965 4.00573902 4.0625 6.67794115 4.0625 12.1875 C-10.7875 12.1875 -25.6375 12.1875 -40.9375 12.1875 C-40.9375 4.75 -40.9375 4.75 -37.9375 1.1875 C-27.41028379 -5.60278232 -10.83279251 -6.68406346 0 0 Z " fill="#575757" transform="translate(174.9375,29.8125)"/>
</svg>
